<svg xmlns="http://www.w3.org/2000/svg" viewBox="0 0 286 268" version="1"><path d="M261.67.45c-.36-.14-1.16.455-1.88 1.5-.56.821-1.9 2.66-2.97 4.063-1.06 1.403-3.01 4.484-4.34 6.844-1.33 2.359-2.75 4.715-3.13 5.25-.37.534-.68 1.154-.68 1.375 0 .755.98.411 1.75-.625.42-.57 1.44-2.401 2.28-4.063 1.57-3.133 3.39-5.934 7.03-10.75 1.17-1.55 2.12-2.974 2.12-3.188 0-.22-.06-.36-.18-.406zm-23.6 3.75c-.54.206-1.12.846-1.78 1.938-2.06 3.416-3.93 12.978-3.59 18.312.5 7.886 1.08 13.654 1.53 15.125.23.76.84.505 1.37-.562.36-.707.61-3.293.79-8.688.35-10.903.6-12.772 2.53-18.781 1.42-4.427 1.57-5.81.78-6.688-.57-.626-1.08-.862-1.63-.656zM29.64 8.513c-.125 0-.411.326-.656.718-.377.604-.245 1.179.937 3.751.77 1.673 1.613 3.726 1.875 4.531.577 1.768 4.715 10.771 5.25 11.437.239.297.503.342.719.125.346-.345-.731-3.177-2.5-6.625-.468-.912-1.273-2.9-1.812-4.406s-1.13-2.892-1.282-3.094c-.151-.201-.722-1.744-1.281-3.406-.558-1.662-1.125-3.031-1.25-3.031zm181.34 1.125c-1.16 0-1.61 1.175-1.13 3 .55 2.052 2.16 4.811 5.22 9.062 3.16 4.378 5.44 8.269 8.94 15.125 2.48 4.862 3.23 5.833 3.88 5.188.22-.228-1.52-5.26-2.41-6.938-.32-.604-1.68-3.311-3-6.031-2.51-5.18-7.64-14.143-7.88-15.062-.48-1.914-2.51-4.344-3.62-4.344zM57.1 11.7c-.591-.134-1.235.327-1.969 1.407-.763 1.122-.802 1.553-.75 7 .031 3.194.231 7.714.469 10.031.84 8.179 1.756 15.12 2.469 18.969.084.453.297.812.5.812.772 0 1.162-2.049.937-5.125-.543-7.423-.858-17.896-.562-19.594.175-1.007.491-3.611.687-5.781.291-3.221.254-4.235-.187-5.5-.472-1.353-1.003-2.085-1.594-2.219zm20.656.125c-.285 0-.597.359-.687.813-.382 1.924-.916 5.361-1.125 7.062-.124 1.008-.585 3.052-1 4.563-.416 1.511-.856 3.499-1 4.406-.145.907-.783 3.471-1.407 5.688-1.505 5.353-2.072 8.072-1.75 8.593.452.731 1.115.188 1.375-1.125 1.147-5.78 1.606-7.917 2.344-10.781 1.098-4.261 2.607-10.941 2.906-12.812.129-.806.481-2.235.782-3.188.585-1.857.402-3.219-.438-3.219zm109.88.157c-.36-.217-.5-.169-.5.093 0 .802 1.87 2.659 4.84 4.813 1.15.836 5.27 4.647 9.16 8.469 3.88 3.821 7.26 6.963 7.5 6.968 1.04.023.81-.873-.5-1.937-1.59-1.289-5.99-5.427-9.63-9.031-2.85-2.818-4.62-4.378-5.87-5.188-.51-.325-1.96-1.54-3.22-2.687-.88-.796-1.43-1.284-1.78-1.5zm80.56 2.062c-.75.044-1.44.252-2 .625-1.22.801-7.49 6.897-10.13 9.844-1.06 1.188-2.31 2.578-2.78 3.094s-2.24 3.361-2.56 3.625c-.32.263-1.35 1.576-2.25 2.937s-2.32 3.131-3.16 3.938c-.83.813-1.39 1.649-1.25 1.875.14.223.36.412.5.406.36-.018 5.39-4.832 5.78-5.531.18-.321 1.5-1.565 2.91-2.782s3.54-3.166 4.75-4.312 4.98-4.132 5.69-4.781c.7-.65 2.39-1.74 3.75-2.407 1.64-.804 2.78-1.634 3.37-2.5 1.45-2.117 1.38-3.099-.22-3.656-.83-.292-1.65-.419-2.4-.375zM19.636 23.7c-.794-.049-1.375.271-1.375.969 0 1.34 1.161 3.603 2.313 4.5.637.496 2.899 2.604 5.031 4.688 2.132 2.083 4.813 4.444 5.969 5.25a63.049 63.049 0 0 1 4.031 3.125c4.321 3.688 5.258 4.461 6.781 5.687.876.705 1.941 1.256 2.375 1.25.772-.011.77-.018-.125-.812-.504-.448-1.547-1.672-2.312-2.719s-1.688-1.984-2.032-2.094c-.343-.11-1.343-1.074-2.25-2.125-.906-1.051-1.991-2.244-2.406-2.656s-2.254-2.491-4.094-4.625c-1.839-2.134-4.565-4.928-6.031-6.219a117.693 117.693 0 0 1-3.312-3.031c-.761-.745-1.769-1.139-2.563-1.188zm265.75 7.969c-.26-.066-.74-.026-1.63.094-1.06.143-3.89.505-6.31.781-4.02.458-9.69 1.374-11.28 1.844-.36.104-.63.443-.63.75 0 .628.61.58 6.6-.594 1.91-.375 5.11-.781 7.12-.906 5.72-.357 6.41-.507 6.41-1.375 0-.346-.03-.528-.28-.594zm-100.6 3.969c-1.21.006-2.78 1.25-2.78 2.219 0 .799 1.92 2.472 3.22 2.781.54.128 1.14.355 1.34.5 1.28.919 9.87 2.979 14.47 3.469 1.31.139 4.54.706 7.16 1.281s5.67 1.166 6.78 1.312 2.52.483 3.12.75c1.6.706 2.97.516 2.82-.406-.17-1.035-1.48-1.942-3.19-2.219-.81-.13-7.8-2.627-10.81-3.093-1.51-.235-5.98-1.575-7.69-2.063s-4.28-1.363-5.69-1.937c-3.53-1.44-7.46-2.601-8.75-2.594zm-83.84 3.531c-1.158-.249-3.516.623-6.751 2.688-1.582 1.008-6.474 4.315-8.313 5.781-1.99 1.586-11.153 6.737-12.031 7.687-.744.806-4.688 2.889-4.688 3.063s.304.32.657.312c1.201-.026 10.281-4.101 19.25-7.906 1.583-.672 4.577-2.194 6.625-3.406 3.196-1.892 3.891-2.482 4.901-4.156 1.48-2.442 1.51-3.814.35-4.063zm-99.501.656c-.302-.001-.506.131-.75.375-.717.718-.542.838 2 1.5 1.177.307 2.315.696 2.531.875s1.214.536 2.219.782c1.005.245 1.996.577 2.219.75.222.172 2.21.873 4.406 1.562 4.596 1.442 4.906 1.503 4.906.813 0-.612-1.534-1.242-8.063-3.375-2.72-.889-5.253-1.806-5.656-2-.403-.195-1.48-.598-2.375-.907-.723-.249-1.135-.373-1.437-.375zm234.97 5.875c-.77.224-1.69 1.01-3.03 2.438a461.58 461.58 0 0 1-4.5 4.656c-1.33 1.343-2.71 2.899-3.07 3.469-.35.569-1.76 2.298-3.12 3.844-1.36 1.545-3.16 3.99-4 5.406-2.1 3.534-4.43 9.545-4.44 11.344 0 .993-.51 2.388-1.53 4.375-3.28 6.351-6.03 13.91-6.88 18.878-.25 1.51-.54 3.1-.62 3.53-.19 1-1.59 1.14-13.78 1.44-7.53.18-9.12.13-9.28-.29-.11-.27-.03-1.83.15-3.46.31-2.726 4.74-13.779 5.03-14.223.3-.445 3.21-8.04 3.69-9.344.49-1.305 1.27-2.773 1.75-3.281 2.98-3.125.74-5.618-2.56-2.844-2.2 1.849-3.7 2.812-4.34 2.812-.91 0-.77-2.26.18-3.125.43-.383 1.18-1.41 1.69-2.281.83-1.418.91-1.731.53-2.937-.24-.78-1.44-2.397-2.81-3.844-1.31-1.377-2.47-2.935-2.59-3.438-.15-.594.11-1.781.78-3.437.63-1.188.72-2.375.28-3.563-.41-.547-1.16-1.23-1.69-1.531-.86-.491-1.09-.482-2 .063-.56.333-1.33 1.132-1.72 1.781-.62 1.05-.65 1.374-.25 2.875.25.927.71 1.929 1 2.25.74.817.64 1.593-.28 2.406-.87.772-2.11 3.27-2.12 4.25-.02 1.496 1.56 4.619 3.28 6.5 1.81 1.981 2.85 4.052 2.4 4.781-.34.558-1.92.457-4.78-.312-2.49-.672-6.03-2.115-6.03-1 0 .071.79 1.815 1.78 3.906 3.08 6.505 4.97 14.383 5.75 24.186.24 2.96.19 3.19-.5 3.41-.4.13-3.5.3-6.9.37-3.41.08-8.01.32-10.22.53-3.63.35-6.79.61-16.63 1.38l-3.06.25.19-5.47c.11-3 .38-6.274.59-7.281s.62-3.139.94-4.719c.31-1.58 1.06-3.884 1.65-5.125.6-1.24 1.46-3.575 1.91-5.187.46-1.612 1.11-3.372 1.47-3.906.9-1.338.89-2.5-.06-2.5-.75 0-2.44.869-3.13 1.625-.66.727-3.11 2.031-3.84 2.031-.98 0-.93-1.095.22-4.375.63-1.815.85-3.009.68-3.75-.3-1.368-2.39-3.712-3.84-4.313-.6-.249-1.09-.66-1.09-.906s.5-1.478 1.12-2.719c1.01-2.014 1.09-2.384.72-3.5-.44-1.346-.95-1.687-2.56-1.687-.72 0-1.37.411-2.16 1.312-1.64 1.87-1.74 2.77-.62 5.063.52 1.075.93 2.059.93 2.187 0 .129-.61.808-1.37 1.5-1.23 1.123-1.38 1.447-1.38 3.032 0 2.159 1.59 4.843 3.85 6.5.81.592 1.47 1.298 1.47 1.562 0 .666-2.86.626-4.5-.062-1-.419-1.53-.461-2.41-.157-.62.217-1.16.478-1.16.563 0 .234 1.7 2.675 3.13 4.531 1.44 1.868 3.83 6.609 4.72 9.344.98 3.036 1.76 7.797 2.31 14.157.17 1.89.09 2.1-.69 2.53-1.01.56-5.77 1.27-11.84 1.78-2.42.2-5.53.53-6.94.72-7.6 1.04-17.11 1.95-17.37 1.66-.46-.51.17-13.831.84-17.753.85-4.971 1.32-6.907 2.06-8.782 2.24-5.644 2.74-6.713 3.35-7.093.83-.523.87-2.003.06-2.313-.33-.128-1.62.259-2.94.906-3.86 1.906-4.15 1.599-2.12-2.281 1.84-3.537 1.68-4.841-.85-7.031l-1.31-1.125.38-2.531c.34-2.182.34-2.605-.16-3-.84-.668-2.08-.557-2.813.25-.774.856-1.205 3.485-.625 3.843.74.457.447 2.108-.906 4.844-1.32 2.672-1.624 4.602-1.187 7.844.102.759-.029.937-.844 1.031-.541.062-1.486-.154-2.094-.469-1.178-.609-2.451-.733-2.719-.281-.089.151.576 1.402 1.469 2.813 2.477 3.911 3.946 7.265 5.344 12.093 1.252 4.324 1.846 7.195 2.465 11.905.4 3 .46 7.25.1 7.47-.37.22-7.966 1.09-9.784 1.13-1.426.02-1.46-.01-1.969-1.82-1.22-4.34-3.263-10.1-3.75-10.59-.197-.2-1.033-2.997-1.843-4.751-1.365-2.955-1.451-3.369-1.25-5.469.178-1.863.092-2.526-.532-3.718-.417-.799-2.164-3.49-2.593-4.313s-4.16-7.009-7.907-11.281c-1.393-1.914-3.157-3.785-3.531-4.188-.373-.403-1.281-1.499-2.031-2.406-3.484-4.211-7.152-6.768-9.188-6.437-1.406.228-1.866.706-1.875 1.968-.006.904 1.505 2.62 8.594 9.782 4.93 4.98 7.375 8.332 10.688 14.656 1.266 2.418 2.673 5.109 3.125 5.969.64 1.219 1.106 1.654 2.156 1.937 1.02.275 1.457.63 1.812 1.531.258.654 1.052 2.427 1.75 3.938 2.855 6.172 5.496 14.772 4.813 15.592-.433.52-2.644 1.14-5.281 1.47-3.654.45-6.868 1.97-7.25 3.44-.103.39 9.551 26.5 10.25 28.22 2.31 5.66 6.343 18.21 6.343 19.78 0 .41-2.032 1.03-4.781 1.47-1.108.17-15.131 2.75-15.937 2.81s-10.866 1.4-13.011 2.15c-.115 2.16 1.638 7.04 2.807 11.43.45 1.7 5.447 19.31 5.672 20.17.383 1.45.339 1.62-.625 2.91-1.937 2.58-17 16.38-17 16.93 0 .45 2.722 3.83 5.125 6.38 3.426 3.63 12.272 14.32 12.719 14.84 2.517 2.96 4.43 6.79 5.99 7.43 2.133.41 29.654-6.6 30.764-6.9 1.1-.3 12.33-3.07 15.37-3.28 3.46-.23 4.1-.02 8.56 3 3.54 2.39 30.22 18.7 31.47 19.66 1.45 1.31 2.49 1.57 3.19 1.37 2.49-.82 2.92-1.2 4.81-2.22l42.44-22.37s16.05-27.51 15.75-28.56c-.21-.74-10.62-11.53-15.09-15.63-.95-.87-1.75-1.92-1.75-2.31 0-.4.79-2.19 1.75-4 .95-1.82 2.24-4.25 2.84-5.41.6-1.15 1.68-3.1 2.41-4.31.72-1.21 16.12-27.89 16.65-28.91 1.08-1.88 2.39-3.9 2.16-4.28-.27-.43-1.63-.23-3.63.07-1.38.2-14.55 1.37-17.97 1.87-4.15.61-12.63 1.45-12.93 1.26-.27-.6.82-3.33 2.93-6.26 2.31-3.19 20.96-32.99 21.88-34.37 3.27-4.92 3.15-4.64 2.47-5.32-.71-.71-2.99-.98-11.91-1.5-3.67-.21-6.58-.54-6.87-.78-.61-.51-.65-3.19-.1-5.905.52-2.539 1.75-6.599 2.16-7.093.18-.214.81-1.678 1.41-3.282 1.74-4.695 3.67-7.825 5.5-8.968.87-.545 2.46-2.054 3.56-3.344 1.09-1.29 2.22-2.573 2.5-2.875s1.28-1.888 2.25-3.5c.96-1.612 4.68-6.38 5.25-7.625.57-1.246 3.78-5.892 4.75-6.938 3.07-3.322 4.81-5.658 4.81-6.375 0-.382-.46-1.259-1.03-1.937-.7-.835-1.29-1.161-2.06-.938zm12.75 0c-1.07.147-1.78.504-1.88 1-.16.864.67 1.187 5.06 2.094 5.71 1.178 11.81 3.043 17.04 5.156 1.61.652 4.23 1.477 5.84 1.844 4.11.935 5.88.911 6.56-.062.35-.492.43-1.052.25-1.532-.3-.83-2.38-2.093-3.44-2.093-.36 0-6.74-1.995-10.31-2.688a96.836 96.836 0 0 1-4.97-1.125c-6.36-1.67-7.72-1.981-10.12-2.406-1.54-.273-2.97-.334-4.03-.188zm-67.47 5.719c.34.012.65.18.9.531.69.93.61 1.582-.34 3.25-.45.791-.99 1.489-1.22 1.563-.52.17-1.59-1.451-1.59-2.406 0-1.636 1.21-2.973 2.25-2.938zm62.69 3.313c-.51-.16-.85.058-.85.656 0 .382.54 1.169 1.19 1.75 1.49 1.318 2.74 3.017 6.84 9.281 1.79 2.728 3.82 5.521 4.47 6.219.66.697 1.6 1.851 2.13 2.562 1.13 1.536 3.41 4.327 5.12 6.282 1.25 1.422 1.97 1.699 2.97 1.062.47-.302.4-.636-.47-2.312-.95-1.832-2.33-3.71-4.19-5.657-.44-.463-1.53-1.862-2.43-3.125-.91-1.263-2.21-2.928-2.91-3.687s-2.24-2.574-3.41-4.031c-1.16-1.458-2.8-3.375-3.65-4.282-.86-.906-2.16-2.362-2.91-3.218-.71-.825-1.4-1.341-1.9-1.5zm-44.22 1.656c-1.97.058-3.37.21-3.63.469-.21.212-.31.395-.22.406s2.2.103 4.72.187c2.52.085 5.75.294 7.16.469 3.73.463 4.14.479 4.37.094.43-.687-1.38-1.188-5.4-1.469a73.293 73.293 0 0 0-7-.156zm-183.44.406c-2.165-.101-4.047.041-4.563.469-1.365 1.133-1.263 2.848.188 3.625.368.197 1.902.69 3.406 1.094 2.384.638 4.043.736 13.125.812 5.73.048 13.435.5 15.094.5 2.437 0 3.031-.119 3.031-.562 0-.439-.73-.565-3.656-.719-2.015-.106-6.095-1.158-7.188-1.281-2.781-.314-9.882-1.923-13.156-2.969-1.657-.529-4.116-.868-6.281-.969zm120.84.531c.97.184 1.02 1.806.13 3.563-.89 1.74-2.02 1.991-2.66.594-.72-1.582 1.03-4.441 2.53-4.157zm44 2.75c.36.212.82.698 1.63 1.594 4.03 4.481 4.53 6.442 2.19 8.594-.76.694-1.63 1.28-1.94 1.281-.69.002-2.85-2.267-3.94-4.094-1.43-2.396-.83-6.266 1.13-7.312.36-.196.58-.274.93-.063zm83.72 2.657c-1.18 0-.3 1.083 1.97 2.406 1.36.79 4.52 3.064 7.03 5.031 2.52 1.968 4.76 3.508 4.97 3.438.92-.305.22-1.24-2-2.719-1.31-.874-2.72-1.915-3.12-2.281-1.35-1.223-8.35-5.875-8.85-5.875zm-29.65.062c-.6.102-.64 1.318.09 2.688.32.604.98 2.155 1.47 3.437s1.44 3.586 2.12 5.125c.69 1.539 1.67 3.965 2.19 5.375.53 1.41 1.27 3.368 1.66 4.375.38 1.007 1.13 3.256 1.65 5 .99 3.306 1.97 4.939 3.28 5.469 1.09.438 1.18.433 1.69-.188.98-1.174.14-3.589-4.53-13.093-2.55-5.186-4.62-9.534-4.62-9.657 0-.522-3.76-7.831-4.22-8.218-.31-.252-.59-.347-.78-.313zm-98.1 2.875c.38.001 1.31.595 2.1 1.313 2.88 2.341 1.28 5.556.28 7.437-1.3 1.817-2.96 1.328-4.97-1.469-1.67-2.32-1.9-3.293-1.06-4.718.75-1.274 2.59-2.566 3.65-2.563zm-36.47 2.969c.45.051 1.02.288 1.57.719.71.558.96 1.097.96 2.031 0 1.448-1.46 4.588-2.75 5.875-1.125 1.13-2.15 1.107-2.683-.063-.504-1.106-.562-4.471 1.438-6.968.394-.357 1.025-1.645 1.465-1.594zm-43.528 2.969c-.374.162-.852.534-1.25 1.062-2.217 2.95-7.575 8.303-11.156 11.156-5.421 4.32-8.728 8.059-9.656 10.907-.385 1.18-.346 1.514.156 2.281.747 1.139 2.423 1.212 3.906.156 1.196-.851 4.641-5.195 8.094-10.156 5.812-8.352 8.221-11.759 9.344-13.25.667-.886 1.187-1.734 1.187-1.906 0-.357-.25-.413-.625-.25zm132.44 3.125c.53.037.57.461.16 1.281-.23.457-.85 2.138-1.38 3.75s-1.47 4.089-2.12 5.5c-.66 1.41-1.66 3.801-2.22 5.312s-1.41 3.76-1.88 4.969c-.81 2.087-1.82 2.993-2.15 1.938-.09-.267-.24-1.708-.35-3.219s-.54-3.902-.97-5.313c-1.96-6.521-2.62-8.45-3.53-10.312-1.33-2.727-.99-3.018 2.53-2.188 4.27 1.004 5.56.914 8.85-.656 1.54-.739 2.53-1.1 3.06-1.062zm-155.56 4.625c-.269.324-2.986 1.392-5 2.375-2.013.982-4.058 1.924-4.562 2.062s-1.253.379-1.656.563c-1.364.62-6.599 1.931-8.625 2.156-1.73.191-2.025.355-2.125 1.062-.142.997.712 1.07 2.781.282.76-.29 3.679-1.251 6.5-2.157 5.441-1.747 14.839-5.408 16.219-6.312 1.855-1.216-3.118-.53-3.532-.031zm110.72-1.5c1.2-.133 1.02.894-.1 4.031-2.54 7.107-2.99 8.588-3.34 11.031-.2 1.384-.45 2.666-.56 2.844-.41.662-1.25.303-1.25-.531 0-2.726-3.28-10.27-6-13.875-.77-1.016-1.29-1.933-1.16-2.063s2.18-.249 4.53-.25c3.33-.001 4.69-.162 6.19-.719.72-.267 1.29-.424 1.69-.468zm82.75 1.592c4.12 8.569 4.49 9.414 5.47 12 .52 1.383 1.02 2.622 1.12 2.781.33.527 1.25.327 1.25-.281 0-.328-.56-1.697-1.25-3.031s-1.68-3.329-2.19-4.438c-.5-1.108-1.98-4.248-3.28-6.968-1.3-2.721-2.45-2.824-1.12-.063zm-122.79.372c.49.008.72.198.72.594 0 .347-.47 2.205-1.06 4.125-.91 2.669-1.8 7.369-2.03 8.578-.24 1.209-.52 2.779-.66 3.469-.28 1.367-.86 1.769-1.44 1.031-.2-.258-.745-1.708-1.186-3.219-1.202-4.118-2.726-9.694-3.902-11.292-.578-.787-.983-1.576-.875-1.75.108-.175 1.453-.216 3-.094 2.101.165 3.993-.446 5.183-.879 1.05-.379 1.77-.571 2.25-.563zm-41.433 7.348c-.198.162-.343.693-.343 1.531 0 .753-.564 3.081-1.25 5.188-1.364 4.184-2.356 7.962-2.813 10.812-.966 6.02.676 1.27.969-.31s1.121-4.812 1.844-7.158c2.23-7.245 2.486-8.247 2.218-9.313-.174-.695-.427-.912-.625-.75zm136.31 19.221c1.37-.31 17.14.34 21.12.87 2.48.34 3.41.99 2.75 1.91-.25.36-12.18 18.62-12.9 19.97-.41.75-.94 1.37-1.16 1.37s-5.74-2.7-6.09-2.87c-4.4-2.19-10.47-4.65-10.88-4.81-.9-.38-5.52-1.71-8.34-2.41-3.69-.92-10.53-1.44-17.88-1.38-7.59.07-10.47.5-18.84 2.88-1.81.51-24.97 8.47-26.81 9.28-8.06 2.68-12.3 3.31-17.19 3.87-8.264.89-16.704.47-22.124-2.1-.717-.15-1.139-1.15-2.219-4.46-.424-1.41-1.254-3.7-1.843-5.06-1.484-3.43-1.441-4.02.468-5 2.05-1.05 15.176-3.44 21.344-3.87 3.284-.24 9.084-.92 13.934-1.63 2.62-.38 7.55-.95 10.97-1.28 7.98-.77 12.28-1.27 15.03-1.75 1.21-.21 3.86-.5 5.88-.66 4.73-.37 12-.98 17.56-1.47 2.42-.21 7.29-.45 10.81-.56 3.53-.1 8.31-.34 10.63-.53 2.31-.19 6.51-.28 9.31-.19s5.7.05 6.47-.12zm-5.34 4.06a6.23 6.23 0 0 0-2.1.06c-1.75.34-2.85 1.37-3.22 2.97-.51 2.27.87 4.22 3.94 5.6 1.33.59 2.73.54 3.16.28 2.78-1.14 3.63-2.09 2.56-5.07-.8-2.21-2.37-3.55-4.34-3.84zm-1.13 1.09c1.2-.07 2.46.35 3.31 1.19 1.6 2.6 1.7 4.36.22 5.13-1.29.67-1.55.69-3.59-.03-1.09-.39-1.87-1.01-2.5-1.97-.88-1.33-.92-1.45-.38-2.5.6-1.15 1.74-1.74 2.94-1.82zm-71.91 4.32c-.87 0-1.77.28-2.37.75-1.79 1.41-.94 3.57 1.78 4.5 3.18 1.08 4.82-1.02 2.97-3.82-.84-1.26-1.14-1.43-2.38-1.43zm.32 1.28c.76.24 1.67 2.13 1.31 2.72-.62 1-3.5-.13-3.5-1.38 0-.81 1.33-1.62 2.19-1.34zm46.84 2.75c4.99 0 14.35 1.19 18 2.28 6.36 1.89 15.36 5.95 16.88 6.66 3.29 1.54 5.01 2.24 4.96 3.12-.05.87-1.08 2.34-2.5 4.78-.34-.41-5.04-3.45-8.15-5.09-4.72-2.5-17.4-6.45-20.72-6.66-6.07-1.47-21.11.05-28.19 2.13-2.83.88-10.46 3.73-14.12 5.43-3.88 1.8-13.1 5.24-18.66 6.97-6.98 2.18-15.16 2.78-23.468 1.69-3.022-.39-7.538-.8-8.593-1.12-.654-.24-1.238-2.29-1.844-4.17-.482-1.28.277-1.14 2.675-.49 2.698.71 6.303 1.26 11.328 1.34 4.832 0 11.512-.63 15.872-1.72 7.87-2.11 37.42-12.63 39.97-13.18 3.46-1.1 12.63-1.97 16.56-1.97zm-71.843.59c-2.002-.34-4.346.21-6.156 1.85-1.293 1.16-1.437 1.48-1.437 3.03 0 1.43.202 1.98 1.187 3.09.655.74 2.532 1.56 3.338 1.84 1.799.64 4.591-.03 6.381-1.37 1.29-1.22 1.43-2.15.81-4.81-.47-2.03-2.12-3.28-4.123-3.63zm-2.283 1.33c4.668-1.01 6.366 3.83 5.315 5.8-.208.38-.881.94-1.469 1.25-1.41.73-3.849.66-5.688-.16-1.094-.49-1.655-1.05-2.156-2.16-.716-3.19 2.191-4.86 3.998-4.73zm78.966 3.7c2.38.13 4.4.43 5.85.91 3.45.68 15.19 4.59 16.12 5.22 2.81 1.4 8.59 5.18 10 6-1.33 2.28-7.79 12.77-8.22 13.59-1.03 1.99-1.54 2.25-5.34 2.75-3.4.45-3.69.49-11.28 1.03-4.95.36-24.13 3.05-39.56 4.63-5.67.58-23.77 3.34-25.22 3.62-5.15 1.01-20.938 3.65-21.376 3.75-.626.16-1.009-.11-1.719-1.22-.498-.77-1.073-1.98-1.281-2.68-2.767-9.38-3.257-10.9-5.75-17.28-.713-1.83-1.21-3.58-1.094-3.88.167-.44.601-.47 2.125-.28 1.054.13 8.264.83 9.616 1.04 5.949.76 15.699-.74 19.789-1.95.4-.17 12.1-4.23 12.91-4.56.8-.33 18.36-7.57 20.43-8.12 6.7-1.8 16.89-2.93 24-2.57zm-8.43 5.36c-1.14 0-2.94 1.05-2.94 2.17 0 1.1 1.46 3.54 4.63 3.21 1.17-.32 1.79-1.33 1.28-2.99-.45-1.47-1.91-2.39-2.97-2.39zm0 1.11c1.61 0 2.93 2.55 1.59 3.06-1.5.61-2.54-.4-3.25-1.56-.29-.76.52-1.5 1.66-1.5zm24.09 8.78c-1.71 0-3.12.65-3.61 2.23-.37 1.21-.47 1.91.41 3.46.55.99 1.41 1.86 2.04 2.18.61.31 1.9.69 2.72.49 1.66-.24 2.25-1.07 2.76-2.19.95-2.1-1.88-6.17-4.32-6.17zm-.91 1.29c1.18-.15 1.67-.21 2.65.66 1.33 1.07 1.58 2.02 1.69 2.91-.16.75.16 1.3-.99 2.11-1.87.71-2.96.45-4.16-1-1.9-2.31-1.12-4.3.81-4.68zm-66.03 2.9c-1.85 1.97-1.04 5.99 1.53 7.56 1.75 1.06 3.32.94 4.85-.4 1.6-1.41 1.7-2.97.37-5.66-2.57-3.62-5.51-2.82-6.75-1.5zm2.38-.16c.74.01 1.6.54 2.62 1.54 1.27 1.23 1.57 1.72 1.57 2.81-.01 1.54-.24 1.98-1.35 2.56-1.04.55-1.53.52-2.84-.19-2.3-1.24-2.97-3.09-1.88-5.22.52-.99 1.14-1.5 1.88-1.5zm28.06 1.78c-2.97.29-3.65 1.03-3.94 2.56-.33 1.77.75 3.03 2.29 3.7 1.95.85 6.23.79 6.02-2.01 0-1.12-1.09-4.72-4.37-4.25zm.25.94c3.27.32 3.4 4.03 2.41 4.41-.95.36-3.59.23-4.38-.22-1-.57-1.27-1.03-1.28-2.22.1-1.65 1.53-1.85 3.25-1.97zm-53.468 3.16c-4.32-.02-6.338 5.48-2.593 7.06.749.32 1.604.66 1.906.75 1.335.43 4.555-1.46 4.905-2.87.28-1.11-.03-1.89-1.41-3.57-.99-1.21-1.3-1.37-2.808-1.37zm130.53.69c.49.48-.67 3.19-2.62 6.09-2.44 3.63-8.73 14.75-9.31 15.75-2.77 4.55-3.23 5.31-4.32 5.74-1.34.38-14.79 6.74-21.56 8.73-.91.27-19.82 6.35-27.41 6.97-9.28.76-14.01.71-22.06-.22s-24.88-3.98-25.47-4.16c-1.19-.36-6.21-1.12-15.06-2.28-6.957-.91-15.862-.55-18.999.43-1.007.31-8.225 1.94-13.75 4.88-2.568 1.37-4.183 2.27-4.627 1.9-.345-.28-2.881-8.91-4.809-16.73-1.07-3.95-2.284-3.78 12.499-6.17 2.983-.39 18.721-3.16 20.031-3.46 2.337-.55 17.035-2.84 20.155-3.44 5.41-1.04 22.53-3.92 29.69-4.47 2.52-.2 30.41-3.6 40.65-4.59 6.66-.65 46.81-5.13 46.97-4.97zm-131.31.78c1.153 0 3.309 1.18 3.629 2 .36.96-.19 2.24-1.16 2.69-1.22.55-2.277.51-3.75-.13-1.022-.44-1.188-.7-1.188-1.81 0-1.58 1.055-2.75 2.469-2.75zm113.72 9.77c-2.68-.6-4.4-.62-5.66.54-1.8 1.43-2.51 2.97-2.03 4.34.48 1.36 2.04 2.79 3.78 3.44 1.51.56 3.44.49 5.13-.15 1.07-.41 2-2.29 2-4 0-1.52-.54-3.36-3.22-4.17zm-3.22 1.01c3.2-.16 5.34 1.54 5.34 3.2 0 .34-.37 1.64-.84 2.08-1.47 1.38-4.79.91-6.94-.97-1.63-1.43-.18-4.41 2.44-4.31zm-50.36 3.22c-.74-.14-2.09-.12-2.79.72-1.2 1.43-.75 2.58.49 3.56 1.31 1.03 3.2.99 3.94-.06 1.29-1.84.67-3.78-1.64-4.22zm-1.23 1.09c.42-.06 1.27-.04 1.76.36.72.59.69 1.1.36 1.64-.55.9-1.23.99-2.25.28-1.04-.73-.97-2.12.13-2.28zm-90.262 11.66c-.015 1.68.733 2.66 2.536 3.31 1.837.65 5.882.67 4.567-3.59-.369-1.52-1.962-2.46-3.094-2.75-3.273-.24-3.993 1.4-4.009 3.03zm3.541-2.03c1.981.46 3.526 3.77 2.031 4.34-1.791.69-4.531-.59-4.531-2.12 0-1.36 1.29-2.51 2.5-2.22zm38.311.09c-.47 0-.93.1-1.34.31-1.5.78-2.47 2.59-2.47 4.57 0 2.17.61 2.96 2.59 3.28 2.46.4 2.47.4 3.94-.35 1.33-.67 2.25-2.01 2.25-3.22 0-.31-.45-1.28-1-2.15-.98-1.54-2.55-2.44-3.97-2.44zm66 1.67c-2.73-.02-4.38 2.01-4.34 5.11.02 1.57.69 2.27 2.6 3.27 1.53.81 3.08.76 4.93.12 1.72-.6 2.73-1.45 3-2.7.6-2.3-1.28-4.18-2.83-5.04-1-.55-2.66-.76-3.36-.76zm-66.37.27c.91 0 1.67.31 2.59 1.12 1.4 1.24 1.62 2.13.72 3.03-.79.79-4.31.79-5.1 0-.71-.71-.7-1.28-.03-2.9.47-1.11.69-1.25 1.82-1.25zm66.25 1.12c.68-.03 1.49.19 2.59.66 2.4 1.03 3.14 2.79 1.81 4.37-1.25 1.5-5.33 1.19-6.56-.5-.79-1.07-.6-2.67.41-3.68.54-.55 1.07-.82 1.75-.85zm38.06.97c.39.4-1.7 4.45-2.41 4.66-.22.06-3.85 1.45-5.84 2.56-4.1 2.27-18.66 7.6-20.38 8.19-5.68 1.94-7.29 2.3-17.03 3.75-11.63 1.73-14.28 1.74-26.03.15-2.01-.27-13.59-1.55-15-1.84-2.78-.57-12.42-2.1-17.41-2.75-1.7-.22-12.334-1.59-14.651-1.81-5.84-.57-9.723-.13-12.778.92-2.632.98-8.495 3.87-10.316 5.45-.722.63-4.241 3.13-4.415 2.8-.086-.16-1.292-4.52-1.548-5.79.595-.99 4.058-2.49 6.9-3.94 4.408-1.88 6.844-3.07 14.66-4.28 3.23-.67 10.749-.53 13.528.09 1.01.22 19.25 3.09 22.53 3.52 1.41.43 6.72 1.28 9.34 1.76 6.04 1.71 24.1 3.1 31.88 2.03 1.41-.19 11.8-1.72 17.5-3.62 2.87-.96 6.46-2.11 7.97-2.57 4.24-1.28 11.92-4.33 15.37-6.09 4.8-2.45 7.72-3.6 8.13-3.19zm-82.14 1.66c-.59.12-1.14.5-1.59.98-.69.58-.87 1.71-.11 2.76 1.34 1.5 4.61.63 4.83-1.5-.14-1.22-1.34-2.6-3.13-2.24zm.42 1.27c1.01-.11 1.64.9 1.25 1.54-.13.21-.79.38-1.5.38-1.12 0-1.29-.1-1.19-.82.08-.57.78-1.02 1.44-1.1zm77.19 4.54c.49.23.48 1.17-.53 3.05-1.74 3.71-8.82 15.92-10.85 20.17-1.15 2.42-9.61 18.04-10.03 18.53s-1.34.63-5 .66c-2.46.01-12.48.17-22.25.37-20.13.41-36.34-.06-46.91-.19-30.989-.35-40.239-.58-40.589-1.03-.361-.46-4.582-22.11-4.687-23.12-.179-1.71-.109-1.9 1.031-3 2.644-2.27 9.834-7.11 15.66-8.38 2.836-.76 5.866-.68 16.905.38 1.91.18 16.28 2.27 17.59 2.56 7.33 1.63 26.69 4.15 29.97 4.38 7.23.47 12.31.05 18.5-1.22 5.44-.74 12.76-2.13 16.72-3.5 9.55-3.31 8.06-2.74 13.37-4.94 2.02-.84 5.11-2.26 6.85-3.16 2.41-1.23 3.76-1.79 4.25-1.56zm-1.97 10.56c.26 0 1.14.5 1.97 1.1 1.75 1.26 13.48 12.94 14.03 13.97.4.74-2.31 4.82-2.97 6.28s-9.34 16.4-10.97 18.93c-.62 1.2-1.47 2.62-3.09 3.32-.83.35-28.87 15.36-38.03 20.09-3.18 1.64-6.02 3-6.29 3-.26 0-1.41-.66-2.56-1.47-1.15-.8-2.6-1.73-3.25-2.06s-32.61-19.49-33.44-19.91c-1.39-.78-6.29-.18-18.09 2.75-3.63.91-21.067 5.09-24.593 5.82l-6.406 1.34-1.219-1.41c-.667-.76-2.114-2.52-3.25-3.93-1.135-1.42-18.058-21.27-18.062-21.88-.003-.38 10.75-9.98 14.781-14.75.856-1.01.978-1.04 1.531-.5.358.35 4.114 21.07 4.719 21.59.914.8.039.78 36.689 1.25 9.07.12 18.77.35 21.59.5 6.04.34 29.09.23 42.13-.18 5.03-.16 10.73-.27 12.62-.28l3.44-.04.81-1.46c5.81-10.68 9.71-18.97 11.5-22.04.69-1.18 1.76-3.04 2.35-4.15 1.69-3.19 3.54-5.88 4.06-5.88zm-17.19 2.94c-1.61 0-4.31 2.35-4.31 3.75 0 1.54 1.14 2.94 2.81 3.7.83.38 2.75.69 3.64.15 1.44-.69 1.94-2.71 1.17-4.97-.54-1.61-1.81-2.63-3.31-2.63zm.06 1.63c1.7.37 3.14 3.24 1.53 4.9-.7.71-1.73.4-3.21-.82-1.05-.87-1.12-1.26-1.04-1.96.14-1.15 1.78-2.43 2.72-2.12zm-86.54 2.02c-3.832.23-3.804 4.03-3.537 7.03.637 2.28 3.677 3.13 5.457 2.66 1.66-.27 2.53-1.49 2.79-3.22.16-2.42-.44-6.38-4.71-6.47zm-.27 1.48c1.87 0 3.35 1.33 3.68 3.83.1 1.77-.49 3.26-2.52 3.07-2.94-.34-3.14-.85-3.44-3.5-.06-1.57.91-3.4 2.28-3.4zm59.19 3.31c-4.32.53-5.51 2.48-6.56 4.06-.94 1.88-1.19 5-.54 6.97.61 1.83 2.46 3.36 5.3 3.99 3.39.74 6.65-1.26 7.99-5.55.9-2.9.14-4.42-.83-6.22-1.14-1.6-2.92-3.25-5.36-3.25zm-.75 1.65c2.15-.21 3.35.6 4.36 1.81 1.13 1.1 1.85 3.05 1.7 4.16-.29 2.15-1.21 3.92-2.53 4.91-.68.5-1.88.99-2.69 1.09-1.22.16-2.01.14-3.59-.87-1.79-1.34-2.56-2.41-2.38-5.28.18-2.7.89-3.95 3.07-5.19.63-.36 1.34-.55 2.06-.63zm57.36 2.63c-1.06-.83-15.83 7.58-17.14 8.22-2.74 1.33-4.03 2.38-4.03 3.28 0 .35.7 1.43 1.56 2.41.86.97 3.41 4.47 4.25 5.53 1.98 2.49 3 2.56 4.12.34.44-.86 6.12-9.57 6.91-10.87 1.51-2.49 4.33-8.17 4.33-8.91zm-134.67.06c-1.266-.13-2.141-.1-3.406.88-1.704 1.29-2.245 1.84-2.567 3.45-.339 2.09.025 3.66 1.866 5.05 1.647 1.11 3.07 1.49 4.919 1.49 3.11 0 4.126-.64 4.813-2.93.448-3.58-.579-4.91-1.915-6.38-1.436-1.13-2.443-1.43-3.71-1.56zm-1.219 1.25c1.133-.18 2.346.1 3.469.88 1.727 1.19 2.438 2.54 2.438 4.47 0 1.13-.559 2-1.313 2.59-1.309 1.03-4.57.69-6.219-.31-2.467-1.51-2.996-3.64-1.406-5.72.832-1.09 1.899-1.73 3.031-1.91zm132.61.98c.34-.02.59.03.75.19.28.28-.15 1.4-1.56 3.94-3.5 6.28-7.1 10.72-8.18 11.86-.44.47-1.04.88-1.34.88-.59 0-2.91-3.8-3.94-5.07-1.04-1.28-1.77-2.52-1.66-2.81.11-.28 9.52-5.52 10.93-6.52 2.15-1.53 3.97-2.39 5-2.47zm-151.49 1.12c-.292 0-1.719 1.19-3.187 2.65-2.015 1.94-4.029 2.96-4.223 3.82.323.94 1.181 1.49 1.879 2.21 1.159 1.18 2.831 3.52 3.688 4.5.856.98 1.668 1.81 1.812 1.82 1.058.06 1.39-4.49.844-11.63-.199-2.6-.406-3.37-.813-3.37zm67.128.53c-1.35.25-2.81 2.16-2.81 3.25 0 2.17 1 3.48 3.71 4.31.51.15 1.51.15 2.03-.09 1.09-.5 2.17-1.96 2.17-3.7 0-1.01-.21-1.99-1.79-3.02-1.52-.98-2.3-.94-3.31-.75zm.53 1.33c.42 0 1.87.38 2.6 1.1 1.16 1.16.75 1.97.4 2.75-.58 1.27-3.01 1.24-4.28-.03-1.61-1.6-.92-3.82 1.28-3.82zm-68.751.79c.475.16.701 2.21.75 6.28.018 1.51-.109 2.58-.344 2.66-.55.18-4.195-4.06-4.188-4.88.008-.84 3.187-4.26 3.782-4.06zm25.156 14.85c-.41-.07-.66.08-1.156.37-.566.33-3.259 3.06-4.75 4.47-2.531 2.39-3.72 3.34-6.282 4.91-1.422.87-1.61 1.55-.593 2.4 1.061.89 1.899.92 4.625.16 1.168-.33 11.598-2.72 13.781-3.5s4.558-1.41 5.281-1.41c1.679 0 2.769-.91 2.249-1.87-.2-.38-2.02-.94-2.655-1.22-.635-.29-1.943-.78-2.906-1.13-.964-.35-4.419-1.75-5.594-2.34-1.031-.52-1.59-.78-2-.84zm-.094 1.28c.192-.07 1.833.61 3.625 1.5 1.792.88 3.609 1.7 4.063 1.84 1.058.33 1.079 1.53.031 2.09-1.075.58-9.115 2.6-11.125 3.13-4.775 1.26-5.869 1.41-6.219.84-.263-.42.571-1.28 7.938-8.06.736-.68 1.496-1.28 1.687-1.34zm57.159 10.03c-.72.1-1 .39-1 .84 0 .87 1.1 1.78 4.93 4.03 1.82 1.07 3.86 2.4 4.57 2.94.7.54 5.75 3.69 6.25 4.22 1.11 1.19 2.23 1.06 4.43-.53.85-.61 7.02-4.34 8.47-5.1 4.86-2.51 6.5-3.69 6.5-4.65 0-.62-.25-.94-.87-1.1-.93-.23-1.57-.23-17.06-.15-5.34.03-11.06-.14-12.69-.35-1.67-.21-2.81-.26-3.53-.15zm16.99 2.06c11.69-.06 13.17-.08 13.17.58 0 .48-8.75 5.99-11.63 7.61-.85.47-1.77.85-2.03.84-.27-.01-1.27-.67-2.25-1.47s-10.28-6.63-10.28-7.12c0-.44 2.79-.4 13.02-.44z"/></svg>