<svg xmlns="http://www.w3.org/2000/svg" viewBox="0 0 286 268" version="1"><path d="M61.26 220.76c-5.632 4.15-2.269 6.04.887 10.18 2.963-.15 2.706-6.89 1.834-11.51-.444-1.26-1.913 1.41-2.721 1.33zM87.156 236.46c-3.511 3.64-7.841 6.25-10.749 10.58 7.915.86 10.814-2.45 16.707-3.04 6.986-1.61 5.079-4.29-.198-5.64-1.596-.7-3.979-2.55-5.76-1.9zM151.35 247.76c-8.67.23-1.37 4.8 3.35 7.11 5.19 4.12 7.1 4.77 12.85.8 5.17-3.76 11.67-5.18 7.38-7.59-7.77-.4-15.8-.33-23.58-.32zM212.06 217.8c-5.78 2.61-8.19 4.28-13.26 7.73-.23 3.87 4.18 7.77 7.44 9.24 3.44-5.77 7.9-10.97 10.78-17.38-.93-1.25-3-.2-4.96.41z" fill="#efa300"/><path d="M205.96 197.73c-6.61 11.24-12.42 22.96-18.66 33.84-37.86 1.26-77.24.42-115.09-.54-1.791-7.19-3.485-15.53-5.316-22.55-5.042 2.55-6.252 6.72-10.609 9.62-5.194 4.03-8.912 8.16-2.569 12.54 6.343 7.34 12.13 15.27 18.61 22.37 14.15-2.82 28.024-6.75 42.464-9.78 8.32-2.7 16.61 6.67 23.75 9.56 8.26 4.48 14.26 10.03 22.68 13.79 15.6-6.44 31.62-16.4 46.82-24.03 5.75-8.01 8.25-15.87 13.63-23.88 4.91-5.24-.94-7.03-4.63-11.56-3.98-2.62-5.44-8.17-11.08-9.38zm7.93 25.46c-3.14 2.43-7.7 19.4-13.2 6.1-8.32-3.09 8.35-9.92 12.39-12.34 3.11-.52 6.42-2.98.81 6.24zm-152.58 6.24c-7.438-3.43 3.087-15.33 2.868-5.02l-.09 6.03-2.778-1.01zm27.843 7.18c7.855 3.17 12.733 5.76.351 8.49-5.99 1.36-17.423 3.85-10.544-.57 2.797-2.66 7.265-9.31 10.193-7.92zm73.283 11.88c2.83.79 19.34-1.33 13.15 1.83-3.91 1.82-10.45 7.98-14.39 8.5-2.43-2.51-15.84-9.65-12.44-10.2 3.56.1 10.12-.23 13.68-.13z" fill="#6eb04a"/><path d="M206.06 188.46c-21.38 10.51-44.68 17.08-68.54 12.48-17.67-2.13-34.73-7.77-52.673-6.21-6.594 2.33-12.949 4.93-17.729 10.47.706 8.51 3.57 17.14 4.991 25.58 7.6 1.64 13.534.07 20.294.94 31.797.52 63.337 1.28 95.107.01 3.58-6.07 5.61-11.97 9.52-17.42 4.17-8.92 10.38-16.1 13.12-25.49-.21-1.43-2.75-1.03-4.09-.36zm-15.48 13.96c8.17 14.51-13.5 2.58 0 0zm-84.5 6.05c5.28 9.35-10.075 7.15-5.86.39 2.58-5.29 5.36-1.9 5.86-.39zm57.74 2.96c7.17 2.64 5.11 17.39-6.46 12.04-3.43-3.56-3.81-13 6.46-12.04zm-78.307 4.25c5.87 2.62 5.157 12.66-4.962 8.44-3.163-2.47-4.061-9.63 4.962-8.44zm45.757 3.14c13.75 8.42-11.23 8.11 0 0z" fill="#ffccae"/><path d="M210.86 180.82c-21.78 10.59-46.78 18.37-71.22 14.18-17.55-2.54-34.01-8.01-51.856-6.8-7.974 1.61-15.414 3.72-22.15 8.32-1.704 5.92.476 10.56 7.107 3.74 8.702-7.15 22.366-6.46 32.869-4.39 23.03 2.45 45.11 9.03 68.32 3.68 13.91-2.34 24.13-7.1 36.72-13.12 2.88-2.88 7.63-8.97.21-5.61z" fill="#d80095"/><path d="M182.69 155.82c-33.36 3.33-65.9 7.74-98.848 13.96-8.245 2.07-17.874 2.93-25.466 4.11.257 7.83 3.747 11.8 4.611 17.94.715 8.04 6.339 1.91 10.461.05 20.845-8.44 43.972.6 65.172 2.77 26.42 4.86 52.57-5.04 76.32-15.7 6.76-7.86 10.4-16.36 15.65-25.31 2.85-7.01-9.29-.83-13.61-1.31-11.68 1.24-22.61 2.26-34.29 3.49zm30.6 7.1c7.61 9.99-11.86 6.78-6.8.76 2.37-3.05 5.47-.82 6.8-.76zm-54.7 3.5c6.51 5.86-7.48 3.99 0 0zm-85.001 10.59c3.068 12.71-14.73-2.6 0 0zm37.781.53c8.54 12.78-16.528 4.51 0 0zm67.92 2.91c6.56 8.56-11.38 7.08-7.38.74 2.77-3.2 4.54-2.01 7.38-.74zm-46.94 2.8c3.61 5.07-7.47 3.12 0 0z" fill="#ffccae"/><path d="M102.64 206.15c-4.66 2.52-3.537 10.55 3.3 8.27 2.17-3.47 1.52-7.95-3.3-8.27zM207.98 162.64c-2.73.74-4.4 5.45 1.31 7.1 6.15 2.19 7.55-5.33 4.26-6.76-1.29-.65-3.89-1.33-5.57-.34z" fill="#e62000"/><path d="M69.504 176.67c-3.451 2.9.43 7.33 4.774 4.06-.04-2.71-1.415-5.06-4.774-4.06zM160.94 210.98c-7 1.7-8.66 13.56 1.19 14 8.01-3.49 7.39-12.91-1.19-14z" fill="#f3e10d"/><path d="M102.35 79.506c-4.008 1.103-11.339-1.168-6.888 5.315 2.89 4.616 3.458 10.616 5.538 15.003 4.18-6.117 2.04-9.995 4.38-14.634 1.83-3.778 2.46-7.963-3.03-5.684zM143 77.59c-3.59 1.85-15.31-2.006-9.61 4.601 3.08 5 4.86 8.782 6.26 14.444 4.45-.264 2.12-7.586 4.98-11.215 1.66-3.342 5.09-10.408-1.63-7.83zM185.27 75.761c-4.02 3.509-9.06-4.37-11.07 1.618 2.42 7.124 4.58 13.559 5.53 21.09 3.6 2.101 4.06-6.416 6.01-9.786 1.31-5.275 6.35-10.59 5.11-15.368-1.82-.736-3.88 1.882-5.58 2.446z" fill="#d1bcda"/><path d="M99.907 67.106c-1.784 3.313-5.293 11.086.433 12.75 3.9-3.377 6.78-11.058-.433-12.75zM136.43 65.227c-7.06 1.722-.87 13.493 3.82 9.997 2.53-3.952 2.32-9.816-3.82-9.997zM181.04 59.173c-8.61 3.095 3.1 18.849 5.12 10.826 3.49-3.687-2.08-9.294-5.12-10.826z" fill="#f3d00d"/><path d="M136.9 56.425c-3.71 1.092-3.76 8.547.82 5.897 1.87-2.782 2.23-5.361-.82-5.897zM180.29 50.917c-4.72 3.081 1.64 10.167 2.76 4.973 2.93-3.326-.88-6.388-2.76-4.973z" fill="#ffe47f"/><path d="M173.43 179.84c-3.38 2.63-1.3 7.66 4.04 6.92 2.84-.14 5.05-5.12.58-6.78-1.01-.33-3.57-.38-4.62-.14z" fill="#ffac00"/><path d="M107.96 177.69c-4.34 4.01-.95 9.28 3.79 6.67 3.63-1.84.72-8.52-3.79-6.67zM188.17 202.9c-5.7 3.65 2.43 9.42 4.38 4.58 1.15-3.51-2.12-5.76-4.38-4.58z" fill="#12b300"/><path d="M130.48 219.62c-4.43 4.19 3 7.9 4.44 4.07.8-3.78-2.12-4.35-4.44-4.07z" fill="#ffac00"/><path d="M130.75 183.1c-4 2.85 2.61 5.73 2.8 1.63-.04-1.23-1.54-1.93-2.8-1.63z" fill="#e62000"/><path d="M157.58 166.98c-5.38 2.2 3.52 5.54 2.99 2.33.21-2.85-.61-2.97-2.99-2.33zM82.315 215.63c-4.364 1.89-6.012 6.53.6 9.03 4.349 1.52 8.59-2.25 4.586-7.36-1.596-1.19-3.215-2.08-5.186-1.67z" fill="#1f41ef"/><path d="M162.41 125.24c-22.21 2.09-42.01 18.9-64.906 17.12-4.456.6-11.703-1.63-12.846-1 .058 7.55 4.96 13.81 6.285 21.46 1.109 7.07 8.382 4.21 13.257 3.02 30.89-5.86 61.12-7.71 92.24-11.83 3.8-6.05 5.98-9.74 10.09-16.21-6.8-6.05-18.9-10.34-31.83-12.45-3.38.13-8.9-.24-12.29-.11zm4.63 6.67c3.25 9.63-11.12-2.1 0 0zm23.81 9.31c10.23 13.94-16.05 3.82 0 0zm-63.03 4.54c6.55 10.65-9.54 6.95-5.48-.12 2.36-2.67 4.91-.04 5.48.12zm27.28 1.5c6.05 13.43-15.95-.5 0 0zm-51.71 8.77c-3.932 4.32-12.134-.84-5.663-4.33l4.153.87 1.51 3.46z" fill="#ffccae"/><path d="M101.193 125.64c0 2.42-2.505 4.388-5.589 4.388-3.098 0-5.604-1.968-5.604-4.388 0-2.434 2.506-4.401 5.604-4.401 3.07 0 5.574 1.953 5.59 4.372" fill="#f3e10d"/><path d="M123.993 118.617c0 1.124-1.054 2.04-2.354 2.04-1.296 0-2.35-.916-2.35-2.04 0-1.129 1.054-2.044 2.35-2.044s2.347.91 2.354 2.035" fill="#12b300"/><path d="M197.699 113.26c1.756 1.914 1.725 4.214-.077 5.128-1.798.912-4.688.095-6.444-1.82-1.764-1.92-1.733-4.22.065-5.132s4.676-.1 6.441 1.808M103.284 154.694c0 1.66-1.69 3.01-3.77 3.01-2.09 0-3.78-1.35-3.78-3.01 0-1.67 1.69-3.02 3.78-3.02 2.07 0 3.76 1.34 3.77 3" fill="#e62000"/><path d="M128.96 146.9c.97 1.99.339 4.332-1.412 5.224-1.76.897-3.972.004-4.944-1.986-.977-2.001-.345-4.344 1.414-5.24 1.742-.888 3.95-.007 4.93 1.978" fill="#1f41ef"/><path d="M156.886 150.033c0 1.637-1.65 2.97-3.685 2.97-2.03 0-3.68-1.333-3.68-2.97 0-1.644 1.65-2.977 3.68-2.977s3.675 1.326 3.685 2.963" fill="#ffac00"/><path d="M167.763 133.704c0 1.124-1.054 2.04-2.354 2.04-1.296 0-2.35-.916-2.35-2.04 0-1.129 1.054-2.044 2.35-2.044s2.347.91 2.354 2.035" fill="#f3e10d"/><path d="M192.134 143.633c1.32 1.757 1.298 3.87-.058 4.71-1.353.837-3.527.086-4.848-1.672-1.327-1.765-1.304-3.877.049-4.715s3.518-.092 4.846 1.662" fill="#12b300"/><path d="M159.4 120.21c-19.21 2.83-34.13 12.47-53.33 15.34-7.644 1.25-16.367.19-23.742-1.26-2.491 6.29 2.333 7.62 9.047 6.9 14.415 2.99 27.275-.78 40.445-6.69 16.2-6.82 33.68-12.99 51.25-7.56 8.59 1.71 16.09 6.57 23.71 10.22 4.44-4.21 2.48-6.9-3.29-9.11-13.75-6.72-28.73-9.8-44.09-7.84z" fill="#d80095"/><path d="M150.79 108.3c-35.37 3.81-44.49 5.92-65.746 7.64-4.934.48-11.369 1.37-7.341 7.99 1.807 5.39.571 10.5 7.619 10.69 28.428 5.26 48.588-9.72 72.488-14.55 15.82-1.88 33.13.79 47.13 8.66 7.47 4.89 6.58.35 10.16-4.67 2.63-5.77 6.99-9.38 10.12-16.67-9.96-2.7-25.27-.52-32.83-1.31-3.04-.09-38.56 2.18-41.6 2.22zm46.95 4.11c5.17 11.04-10.74 5.51-7.97.26 2.66-3.34 6.72-1.16 7.97-.26zm-74.32 4.18c3.34 8.69-11.66.35 0 0zm-23.927 5.61c6.607 12.44-15.736 8.04-8.296.06 1.529-1.14 6.679-1.1 8.296-.06z" fill="#ffccae"/><path d="M236.5 45.731c-.77.223-1.68 1.009-3.03 2.437a366.16 366.16 0 0 1-4.5 4.656c-1.32 1.343-2.71 2.9-3.06 3.469-.36.57-1.77 2.298-3.13 3.844s-3.16 3.99-4 5.406c-2.09 3.535-4.43 9.546-4.44 11.344 0 .993-.5 2.388-1.53 4.375-3.27 6.351-6.03 13.91-6.87 18.878-.26 1.51-.54 3.1-.63 3.53-.19 1-1.58 1.14-13.78 1.44-7.52.18-9.12.13-9.28-.29-.11-.27-.03-1.83.16-3.46.3-2.725 4.74-13.779 5.03-14.223s3.2-8.039 3.69-9.344c.48-1.304 1.26-2.772 1.75-3.281 2.98-3.124.73-5.618-2.57-2.844-2.2 1.849-3.7 2.813-4.34 2.813-.9 0-.77-2.261.19-3.125.42-.384 1.17-1.411 1.68-2.282.84-1.417.91-1.731.54-2.937-.25-.779-1.44-2.396-2.82-3.844-1.3-1.376-2.46-2.935-2.59-3.437-.15-.595.11-1.782.78-3.438.63-1.187.72-2.375.28-3.562-.4-.548-1.16-1.231-1.69-1.532-.86-.49-1.09-.482-2 .063-.55.334-1.33 1.132-1.71 1.781-.63 1.051-.66 1.375-.25 2.875.24.927.71 1.93 1 2.25.74.817.63 1.593-.29 2.406-.86.772-2.11 3.271-2.12 4.25-.02 1.497 1.56 4.619 3.28 6.5 1.81 1.981 2.86 4.052 2.41 4.782-.35.558-1.93.457-4.78-.313-2.5-.671-6.04-2.115-6.04-1 0 .071.79 1.815 1.79 3.906 3.08 6.505 4.96 14.384 5.75 24.186.23 2.96.18 3.19-.5 3.41-.41.13-3.51.3-6.91.37-3.4.08-8 .32-10.22.53-3.63.35-6.78.61-16.62 1.38l-3.07.25.19-5.47c.11-3 .38-6.273.59-7.281.22-1.007.63-3.138.94-4.718.32-1.58 1.07-3.885 1.66-5.125.59-1.241 1.45-3.576 1.9-5.188.46-1.612 1.11-3.371 1.47-3.906.91-1.337.89-2.5-.06-2.5-.75 0-2.44.869-3.12 1.625-.66.727-3.12 2.031-3.85 2.031-.98 0-.93-1.094.22-4.375.63-1.815.85-3.008.69-3.75-.3-1.368-2.4-3.712-3.85-4.312-.6-.25-1.09-.661-1.09-.907 0-.245.51-1.477 1.13-2.718 1-2.015 1.08-2.384.71-3.5-.44-1.347-.95-1.688-2.56-1.688-.72 0-1.36.412-2.15 1.313-1.65 1.87-1.75 2.77-.63 5.062.53 1.076.94 2.059.94 2.188 0 .128-.62.807-1.38 1.5-1.22 1.123-1.37 1.446-1.37 3.031 0 2.159 1.59 4.844 3.84 6.5.81.593 1.47 1.299 1.47 1.562 0 .666-2.85.626-4.5-.062-1-.419-1.53-.461-2.41-.156-.62.216-1.15.477-1.15.562 0 .234 1.69 2.676 3.12 4.531 1.44 1.868 3.84 6.609 4.72 9.344.98 3.037 1.76 7.797 2.31 14.157.17 1.89.1 2.1-.68 2.53-1.02.56-5.78 1.27-11.85 1.78-2.41.21-5.52.53-6.93.72-7.61 1.04-17.12 1.95-17.38 1.66-.45-.51.18-13.831.84-17.753.85-4.971 1.32-6.906 2.07-8.781 2.24-5.644 2.73-6.713 3.34-7.094.84-.523.87-2.003.06-2.313-.33-.127-1.62.259-2.93.907-3.87 1.906-4.15 1.599-2.13-2.282 1.84-3.537 1.69-4.841-.84-7.031l-1.32-1.125.38-2.531c.34-2.181.34-2.605-.16-3-.84-.668-2.08-.557-2.809.25-.775.856-1.205 3.485-.625 3.844.739.457.446 2.107-.907 4.843-1.32 2.672-1.624 4.602-1.187 7.844.102.759-.029.937-.844 1.031-.54.063-1.486-.154-2.094-.468-1.178-.61-2.451-.733-2.718-.282-.09.152.575 1.403 1.468 2.813 2.477 3.911 3.946 7.265 5.344 12.094 1.252 4.324 1.847 7.194 2.472 11.904.39 3 .45 7.25.09 7.47-.37.22-7.962 1.09-9.781 1.13-1.425.02-1.46-.01-1.968-1.82-1.221-4.34-3.264-10.1-3.75-10.59-.197-.2-1.034-2.997-1.844-4.751-1.365-2.954-1.451-3.368-1.25-5.468.178-1.863.092-2.526-.531-3.719-.418-.798-2.165-3.489-2.594-4.313-.429-.823-4.16-7.008-7.906-11.281-1.393-1.914-3.158-3.784-3.532-4.187-.373-.403-1.281-1.5-2.031-2.407-3.484-4.211-7.151-6.767-9.187-6.437-1.407.228-1.867.706-1.875 1.969-.006.903 1.504 2.619 8.593 9.781 4.93 4.98 7.376 8.333 10.688 14.656l3.125 5.969c.64 1.22 1.106 1.655 2.156 1.937 1.021.275 1.457.631 1.813 1.532.258.653 1.051 2.426 1.75 3.937 2.854 6.172 5.495 14.772 4.812 15.592-.432.52-2.644 1.14-5.281 1.47-3.653.45-6.867 1.97-7.25 3.44-.103.39 9.551 26.5 10.25 28.22 2.31 5.66 6.344 18.21 6.344 19.78 0 .41-2.032 1.03-4.782 1.47-1.108.17-15.131 2.75-15.937 2.81s-10.866 1.4-13.01 2.15c-.116 2.16 1.637 7.04 2.806 11.43.451 1.7 5.447 19.32 5.673 20.17.382 1.45.338 1.62-.625 2.91-1.938 2.58-17 16.38-17 16.93 0 .45 2.722 3.83 5.125 6.38 3.425 3.63 12.272 14.32 12.718 14.84 2.517 2.97 4.43 6.79 5.991 7.43 2.132.41 29.65-6.6 30.76-6.9s12.33-3.07 15.37-3.28c3.47-.23 4.1-.02 8.57 3 3.53 2.4 30.22 18.7 31.47 19.66 1.44 1.31 2.48 1.57 3.18 1.37 2.49-.82 2.92-1.2 4.82-2.22l42.43-22.37s16.06-27.51 15.75-28.56c-.21-.74-10.62-11.53-15.09-15.63-.95-.87-1.75-1.91-1.75-2.31s.79-2.18 1.75-4 2.24-4.25 2.84-5.41c.61-1.15 1.68-3.1 2.41-4.31s16.12-27.89 16.66-28.91c1.07-1.88 2.39-3.9 2.15-4.28-.27-.43-1.63-.23-3.62.07-1.39.2-14.55 1.37-17.97 1.87-4.16.61-12.64 1.45-12.93 1.26-.27-.6.82-3.33 2.93-6.26 2.3-3.19 20.95-32.99 21.87-34.37 3.28-4.92 3.15-4.64 2.47-5.32-.71-.71-2.98-.98-11.9-1.5-3.68-.21-6.59-.54-6.88-.78-.61-.51-.65-3.19-.09-5.904.52-2.54 1.74-6.6 2.15-7.094.18-.213.81-1.677 1.41-3.281 1.74-4.695 3.67-7.826 5.5-8.969.87-.545 2.47-2.054 3.56-3.344 1.1-1.29 2.23-2.573 2.5-2.875.28-.302 1.29-1.888 2.25-3.5.97-1.612 4.68-6.379 5.25-7.625.57-1.245 3.79-5.892 4.75-6.937 3.07-3.322 4.81-5.658 4.81-6.375 0-.383-.46-1.259-1.03-1.938-.69-.834-1.29-1.161-2.06-.937zm-54.72 5.718c.35.012.65.181.91.532.68.93.6 1.581-.35 3.25-.45.79-.99 1.489-1.21 1.562-.52.171-1.6-1.451-1.6-2.406 0-1.635 1.22-2.972 2.25-2.938zm-44.12 5.907c.97.183 1.02 1.806.12 3.562-.89 1.74-2.02 1.991-2.65.594-.72-1.582 1.03-4.441 2.53-4.156zm44 2.75c.35.211.82.698 1.62 1.593 4.03 4.481 4.53 6.442 2.19 8.594-.76.694-1.63 1.281-1.94 1.281-.68.003-2.85-2.266-3.94-4.093-1.42-2.397-.83-6.266 1.13-7.313.36-.195.58-.274.94-.062zm-44.03 5.593c.37.001 1.31.595 2.09 1.313 2.88 2.341 1.29 5.557.28 7.437-1.29 1.818-2.96 1.329-4.97-1.468-1.66-2.32-1.9-3.294-1.06-4.719.75-1.273 2.59-2.565 3.66-2.563zm-36.47 2.969c.44.051 1.01.288 1.56.719.71.559.97 1.098.97 2.031 0 1.449-1.47 4.589-2.75 5.875-1.132 1.131-2.156 1.108-2.689-.062-.504-1.107-.563-4.471 1.437-6.969.392-.357 1.022-1.645 1.472-1.594zm88.9 6.094c.53.037.57.462.16 1.281-.23.458-.85 2.138-1.38 3.75-.52 1.612-1.46 4.09-2.12 5.5-.66 1.411-1.66 3.802-2.22 5.313s-1.41 3.76-1.87 4.968c-.81 2.087-1.83 2.993-2.16 1.938-.08-.267-.23-1.708-.34-3.219-.12-1.511-.55-3.902-.97-5.312-1.96-6.521-2.62-8.451-3.53-10.313-1.34-2.726-1-3.017 2.53-2.187 4.26 1.003 5.55.913 8.84-.657 1.55-.738 2.54-1.099 3.06-1.062zm-44.84 3.125c1.2-.133 1.03.894-.09 4.031-2.54 7.108-3 8.589-3.35 11.031-.19 1.384-.45 2.666-.56 2.844-.41.663-1.25.303-1.25-.531 0-2.726-3.27-10.27-6-13.875-.77-1.015-1.29-1.933-1.16-2.063.13-.129 2.18-.249 4.53-.25 3.34 0 4.69-.162 6.19-.718.72-.267 1.29-.425 1.69-.469zm-40.03 1.965c.48.008.72.198.72.593 0 .347-.48 2.206-1.07 4.125-.9 2.67-1.8 7.37-2.03 8.579-.23 1.208-.52 2.778-.66 3.468-.28 1.368-.85 1.77-1.44 1.032-.2-.259-.741-1.708-1.183-3.219-1.202-4.119-2.725-9.694-3.901-11.293-.579-.787-.983-1.575-.875-1.75s1.452-.215 3-.094c2.101.165 3.989-.445 5.189-.879 1.04-.378 1.76-.57 2.25-.562zm94.87 26.568c1.37-.31 17.14.34 21.13.87 2.48.34 3.4.99 2.75 1.91-.26.36-12.18 18.63-12.91 19.97-.41.75-.93 1.37-1.15 1.37-.23 0-5.75-2.7-6.1-2.87-4.4-2.19-10.47-4.65-10.87-4.81-.91-.38-5.53-1.71-8.35-2.41-3.69-.92-10.53-1.44-17.87-1.38-7.59.07-10.47.5-18.85 2.88-1.81.51-24.96 8.47-26.81 9.28-8.05 2.68-12.29 3.31-17.19 3.87-8.261.89-16.701.47-22.12-2.1-.717-.15-1.14-1.15-2.219-4.46-.425-1.41-1.255-3.7-1.844-5.06-1.483-3.43-1.441-4.02.469-5 2.05-1.05 15.175-3.44 21.343-3.87 3.291-.23 9.081-.92 13.941-1.63 2.62-.38 7.54-.95 10.97-1.28 7.97-.77 12.27-1.27 15.03-1.75 1.21-.21 3.86-.5 5.87-.66 4.73-.37 12.01-.98 17.56-1.47 2.42-.21 7.29-.45 10.82-.56 3.52-.1 8.31-.34 10.62-.53 2.32-.19 6.52-.28 9.31-.19 2.8.09 5.7.05 6.47-.12zm-5.34 4.06c-.66-.1-1.35-.08-2.09.06-1.75.34-2.86 1.37-3.22 2.97-.51 2.27.87 4.22 3.93 5.6 1.33.59 2.74.54 3.16.28 2.78-1.14 3.63-2.09 2.56-5.07-.79-2.21-2.36-3.55-4.34-3.84zm-1.13 1.09c1.2-.07 2.46.35 3.32 1.19 1.59 2.6 1.69 4.36.22 5.13-1.3.67-1.56.69-3.6-.03-1.08-.39-1.86-1.01-2.5-1.97-.88-1.33-.92-1.45-.37-2.5.59-1.15 1.74-1.74 2.93-1.82zm-71.9 4.32c-.87 0-1.78.28-2.38.75-1.79 1.41-.94 3.57 1.78 4.5 3.18 1.08 4.82-1.02 2.97-3.82-.83-1.26-1.14-1.43-2.37-1.43zm.31 1.28c.76.24 1.68 2.13 1.31 2.72-.62 1-3.5-.13-3.5-1.38 0-.81 1.33-1.62 2.19-1.34zm46.84 2.75c5 0 14.35 1.19 18 2.28 6.36 1.89 15.36 5.95 16.88 6.66 3.3 1.54 5.02 2.24 4.96 3.12-.05.87-1.08 2.34-2.49 4.78-.35-.41-5.05-3.45-8.16-5.09-4.72-2.5-17.4-6.45-20.72-6.66-6.07-1.47-21.11.05-28.18 2.13-2.84.88-10.47 3.73-14.13 5.43-3.87 1.8-13.1 5.24-18.66 6.97-6.97 2.18-15.16 2.78-23.464 1.69-3.023-.39-7.539-.8-8.594-1.12-.654-.24-1.238-2.29-1.843-4.17-.482-1.28.277-1.14 2.674-.49 2.699.71 6.303 1.26 11.328 1.34 4.829 0 11.509-.63 15.869-1.72 7.87-2.11 37.42-12.63 39.97-13.18 3.46-1.1 12.63-1.97 16.56-1.97zm-71.839.59c-2.003-.34-4.347.21-6.157 1.85-1.293 1.16-1.437 1.48-1.437 3.03 0 1.43.203 1.98 1.187 3.09.655.74 2.532 1.56 3.338 1.84 1.799.64 4.591-.03 6.378-1.37 1.29-1.22 1.43-2.15.82-4.81-.47-2.03-2.126-3.28-4.129-3.63zm-2.284 1.33c4.669-1.01 6.363 3.83 5.313 5.8-.205.38-.878.94-1.467 1.25-1.409.73-3.849.66-5.687-.16-1.094-.49-1.656-1.05-2.157-2.16-.715-3.19 2.191-4.86 3.998-4.73zm78.973 3.7c2.37.13 4.4.43 5.84.91 3.45.68 15.2 4.59 16.13 5.22 2.81 1.4 8.58 5.18 10 6-1.34 2.28-7.79 12.77-8.22 13.59-1.03 1.99-1.55 2.25-5.35 2.75-3.39.45-3.69.49-11.28 1.03-4.95.36-24.12 3.05-39.56 4.63-5.67.58-23.77 3.34-25.22 3.62-5.15 1.01-20.934 3.65-21.373 3.75-.626.16-1.008-.11-1.719-1.22-.497-.77-1.073-1.98-1.281-2.68-2.767-9.38-3.257-10.9-5.75-17.28-.713-1.83-1.21-3.58-1.094-3.88.168-.44.602-.47 2.125-.28 1.055.13 8.264.83 9.616 1.04 5.946.76 15.696-.74 19.786-1.95.41-.17 12.1-4.23 12.91-4.56s18.36-7.57 20.44-8.12c6.69-1.8 16.89-2.93 24-2.57zm-8.44 5.36c-1.13 0-2.94 1.06-2.94 2.17 0 1.1 1.46 3.54 4.64 3.21 1.16-.32 1.78-1.33 1.27-2.99-.45-1.47-1.91-2.39-2.97-2.39zm0 1.11c1.61 0 2.94 2.55 1.59 3.06-1.49.61-2.53-.4-3.25-1.56-.29-.76.53-1.5 1.66-1.5zm24.09 8.78c-1.7 0-3.12.65-3.6 2.23-.38 1.21-.48 1.91.4 3.47.55.98 1.41 1.86 2.04 2.17.61.31 1.9.69 2.73.49 1.65-.24 2.24-1.06 2.75-2.19.96-2.1-1.88-6.17-4.32-6.17zm-.91 1.29c1.18-.15 1.68-.21 2.65.66 1.33 1.07 1.59 2.02 1.69 2.91-.16.75.16 1.3-.99 2.11-1.86.71-2.96.45-4.15-1-1.91-2.31-1.13-4.3.8-4.68zm-66.02 2.9c-1.85 1.97-1.05 5.99 1.53 7.56 1.74 1.07 3.31.94 4.84-.4 1.6-1.41 1.7-2.97.38-5.66-2.58-3.62-5.51-2.82-6.75-1.5zm2.37-.16c.74.01 1.6.54 2.63 1.54 1.27 1.23 1.56 1.72 1.56 2.81-.01 1.54-.24 1.98-1.34 2.56-1.05.55-1.54.52-2.85-.19-2.3-1.24-2.97-3.09-1.87-5.22.51-.99 1.13-1.5 1.87-1.5zm28.06 1.78c-2.97.29-3.65 1.03-3.93 2.56-.34 1.77.74 3.03 2.28 3.7 1.95.85 6.23.79 6.02-2.01 0-1.12-1.09-4.72-4.37-4.25zm.25.94c3.27.32 3.4 4.03 2.41 4.41-.94.36-3.58.23-4.37-.22-1.01-.57-1.28-1.03-1.29-2.22.11-1.65 1.54-1.85 3.25-1.97zm-53.464 3.16c-4.321-.02-6.338 5.48-2.594 7.06.749.32 1.604.66 1.906.75 1.332.43 4.552-1.46 4.902-2.87.28-1.11-.02-1.89-1.4-3.57-1-1.21-1.31-1.36-2.814-1.37zm130.53.69c.48.48-.68 3.19-2.63 6.09-2.44 3.63-8.73 14.75-9.31 15.75-2.76 4.55-3.23 5.31-4.31 5.74-1.35.38-14.79 6.74-21.57 8.73-.9.27-19.82 6.35-27.4 6.97-9.28.76-14.01.71-22.06-.22s-24.89-3.98-25.47-4.16c-1.19-.36-6.22-1.12-15.07-2.28-6.954-.91-15.859-.55-18.995.43-1.008.31-8.226 1.94-13.751 4.88-2.567 1.37-4.182 2.27-4.627 1.9-.345-.28-2.881-8.91-4.808-16.73-1.071-3.95-2.284-3.78 12.498-6.17 2.984-.39 18.722-3.16 20.031-3.46 2.338-.55 17.032-2.84 20.152-3.44 5.41-1.04 22.53-3.91 29.69-4.47 2.52-.2 30.41-3.6 40.66-4.59 6.66-.65 46.81-5.13 46.97-4.97zm-131.32.78c1.153 0 3.316 1.18 3.626 2 .37.96-.18 2.24-1.16 2.69-1.22.55-2.274.51-3.747-.13-1.022-.44-1.187-.7-1.187-1.81 0-1.58 1.055-2.75 2.468-2.75zm113.72 9.77c-2.68-.6-4.4-.62-5.65.54-1.81 1.43-2.51 2.97-2.03 4.34.47 1.36 2.03 2.8 3.78 3.44 1.5.56 3.43.49 5.12-.15 1.07-.41 2-2.29 2-4 0-1.52-.54-3.36-3.22-4.17zm-3.22 1.01c3.21-.16 5.35 1.54 5.35 3.2 0 .34-.38 1.64-.85 2.08-1.46 1.38-4.78.91-6.93-.97-1.63-1.42-.19-4.41 2.43-4.31zm-50.36 3.22c-.74-.14-2.08-.11-2.78.72-1.21 1.43-.75 2.58.49 3.56 1.31 1.03 3.2.99 3.94-.06 1.28-1.84.66-3.78-1.65-4.22zm-1.23 1.09c.42-.06 1.28-.04 1.76.36.73.59.7 1.1.37 1.64-.55.9-1.24.99-2.25.28-1.05-.73-.98-2.12.12-2.28zm-90.258 11.66c-.016 1.68.732 2.66 2.535 3.31 1.838.65 5.882.67 4.568-3.59-.369-1.52-1.962-2.46-3.094-2.75-3.274-.24-3.994 1.4-4.009 3.03zm3.54-2.03c1.981.46 3.526 3.77 2.031 4.34-1.791.69-4.531-.59-4.531-2.12 0-1.36 1.291-2.51 2.5-2.22zm38.308.09c-.47 0-.92.1-1.34.31-1.49.78-2.47 2.59-2.47 4.57 0 2.17.62 2.96 2.6 3.28 2.46.4 2.46.4 3.93-.35 1.33-.67 2.25-2.01 2.25-3.22 0-.31-.44-1.28-1-2.15-.98-1.54-2.55-2.44-3.97-2.44zm66 1.67c-2.73-.02-4.38 2.02-4.34 5.11.02 1.57.7 2.27 2.6 3.27 1.53.81 3.09.76 4.93.12 1.73-.6 2.73-1.45 3-2.7.6-2.3-1.27-4.18-2.83-5.04-1-.55-2.65-.76-3.36-.76zm-66.37.27c.92 0 1.67.31 2.59 1.12 1.41 1.24 1.62 2.13.72 3.03-.78.79-4.31.79-5.09 0-.72-.71-.71-1.28-.03-2.9.46-1.11.69-1.25 1.81-1.25zm66.25 1.12c.68-.03 1.5.19 2.59.66 2.4 1.03 3.14 2.79 1.82 4.37-1.26 1.5-5.33 1.19-6.57-.5-.79-1.07-.6-2.67.41-3.68.54-.55 1.07-.82 1.75-.85zm38.06.97c.4.4-1.7 4.45-2.4 4.66-.23.06-3.85 1.45-5.85 2.56-4.1 2.27-18.66 7.6-20.37 8.19-5.69 1.94-7.3 2.3-17.03 3.75-11.63 1.73-14.29 1.74-26.04.15-2.01-.27-13.59-1.55-15-1.84-2.78-.57-12.42-2.09-17.4-2.75-1.71-.22-12.341-1.59-14.658-1.81-5.839-.57-9.722-.13-12.778.92-2.632.98-8.495 3.87-10.316 5.45-.722.63-4.241 3.13-4.415 2.8-.086-.16-1.292-4.52-1.548-5.79.595-.99 4.058-2.49 6.901-3.94 4.407-1.88 6.844-3.07 14.659-4.28 3.23-.67 10.749-.53 13.525.09 1.01.22 19.26 3.09 22.54 3.52 1.41.43 6.71 1.28 9.34 1.76 6.03 1.71 24.1 3.1 31.87 2.03 1.41-.19 11.8-1.72 17.5-3.62 2.87-.96 6.46-2.11 7.97-2.57 4.24-1.27 11.92-4.32 15.38-6.09 4.79-2.45 7.71-3.6 8.12-3.19zm-82.13 1.66c-.6.12-1.15.5-1.6.98-.69.58-.87 1.71-.11 2.76 1.34 1.5 4.62.63 4.83-1.5-.14-1.22-1.34-2.6-3.12-2.24zm.41 1.28c1.01-.12 1.65.89 1.25 1.53-.13.21-.79.38-1.5.38-1.12 0-1.29-.1-1.18-.82.08-.57.77-1.02 1.43-1.09zm77.19 4.53c.49.23.48 1.17-.53 3.05-1.74 3.71-8.82 15.92-10.84 20.17-1.16 2.42-9.61 18.04-10.04 18.53-.42.49-1.34.63-5 .66-2.45.01-12.47.17-22.25.37-20.12.41-36.34-.06-46.9-.19-30.996-.35-40.245-.58-40.596-1.03-.36-.46-4.582-22.11-4.687-23.12-.179-1.71-.108-1.9 1.031-3 2.645-2.26 9.834-7.11 15.66-8.38 2.836-.76 5.867-.68 16.902.38 1.91.18 16.28 2.27 17.59 2.56 7.33 1.63 26.69 4.15 29.97 4.38 7.23.47 12.32.05 18.5-1.22 5.44-.74 12.76-2.13 16.72-3.5 9.55-3.31 8.06-2.74 13.38-4.94 2.01-.83 5.1-2.26 6.84-3.16 2.41-1.23 3.76-1.79 4.25-1.56zm-1.97 10.56c.26 0 1.14.5 1.97 1.1 1.75 1.26 13.49 12.95 14.03 13.97.4.74-2.3 4.82-2.97 6.28-.66 1.46-9.33 16.4-10.97 18.93-.62 1.21-1.46 2.62-3.09 3.32-.83.35-28.87 15.36-38.03 20.09-3.18 1.64-6.02 3-6.28 3-.27 0-1.42-.66-2.56-1.47-1.15-.8-2.61-1.73-3.25-2.06-.65-.33-32.62-19.49-33.44-19.91-1.4-.78-6.3-.18-18.1 2.75-3.63.91-21.063 5.09-24.589 5.82l-6.407 1.34-1.218-1.41c-.667-.76-2.115-2.52-3.25-3.93-1.136-1.41-18.058-21.27-18.063-21.88-.003-.38 10.75-9.98 14.781-14.75.856-1.01.978-1.04 1.532-.5.357.35 4.113 21.07 4.718 21.59.915.8.04.78 36.686 1.25 9.07.12 18.77.35 21.6.5 6.03.34 29.08.23 42.12-.18 5.04-.16 10.73-.27 12.63-.28l3.43-.04.82-1.46c5.8-10.68 9.7-18.97 11.5-22.04.69-1.17 1.75-3.04 2.34-4.15 1.7-3.19 3.54-5.88 4.06-5.88zm-17.19 2.94c-1.61 0-4.31 2.35-4.31 3.75 0 1.54 1.14 2.94 2.81 3.7.83.38 2.75.69 3.65.15 1.44-.69 1.93-2.71 1.17-4.97-.55-1.61-1.82-2.63-3.32-2.63zm.07 1.63c1.7.37 3.14 3.24 1.53 4.9-.71.71-1.74.4-3.22-.82-1.04-.87-1.12-1.26-1.03-1.96.14-1.15 1.78-2.43 2.72-2.12zm-86.54 2.02c-3.838.23-3.81 4.03-3.544 7.03.644 2.28 3.684 3.14 5.464 2.66 1.65-.27 2.52-1.49 2.79-3.22.16-2.42-.45-6.37-4.71-6.47zm-.28 1.48c1.87 0 3.36 1.33 3.68 3.83.11 1.77-.49 3.26-2.52 3.07-2.94-.34-3.14-.85-3.44-3.5-.05-1.57.91-3.4 2.28-3.4zm59.19 3.31c-4.32.53-5.5 2.48-6.56 4.06-.94 1.88-1.18 5-.53 6.97.6 1.83 2.46 3.36 5.29 3.99 3.4.74 6.65-1.26 7.99-5.55.9-2.9.14-4.42-.82-6.22-1.15-1.6-2.93-3.25-5.37-3.25zm-.75 1.65c2.15-.21 3.35.6 4.37 1.81 1.12 1.1 1.85 3.05 1.69 4.16-.29 2.15-1.21 3.92-2.53 4.91-.67.5-1.88.99-2.68 1.09-1.22.16-2.02.14-3.59-.87-1.79-1.34-2.57-2.4-2.38-5.28.17-2.7.88-3.95 3.06-5.19.63-.36 1.35-.55 2.06-.63zm57.36 2.63c-1.06-.83-15.83 7.58-17.14 8.22-2.74 1.33-4.03 2.38-4.03 3.28 0 .35.7 1.43 1.56 2.41.87.97 3.41 4.47 4.25 5.53 1.98 2.49 3 2.56 4.13.34.43-.86 6.11-9.56 6.9-10.87 1.51-2.49 4.33-8.17 4.33-8.91zm-134.67.06c-1.266-.13-2.141-.1-3.406.88-1.704 1.29-2.245 1.84-2.567 3.45-.338 2.09.025 3.66 1.866 5.05 1.648 1.11 3.07 1.49 4.919 1.49 3.11 0 4.126-.64 4.813-2.93.448-3.58-.579-4.91-1.914-6.38-1.437-1.13-2.444-1.43-3.711-1.56zm-1.218 1.25c1.133-.18 2.345.1 3.468.88 1.727 1.19 2.438 2.54 2.438 4.47 0 1.13-.559 2-1.312 2.59-1.31 1.03-4.571.69-6.219-.31-2.467-1.51-2.996-3.64-1.407-5.72.832-1.09 1.899-1.73 3.032-1.91zm132.61.98c.35-.02.59.03.75.19.29.28-.15 1.4-1.56 3.94-3.49 6.28-7.1 10.72-8.17 11.86-.45.47-1.05.88-1.35.88-.59 0-2.91-3.8-3.94-5.07-1.03-1.28-1.76-2.52-1.65-2.81.11-.28 9.51-5.52 10.92-6.52 2.15-1.53 3.97-2.39 5-2.47zm-151.48 1.12c-.292 0-1.72 1.19-3.188 2.65-2.014 1.94-4.029 2.96-4.223 3.82.323.94 1.182 1.49 1.879 2.21 1.159 1.18 2.832 3.52 3.688 4.5s1.668 1.81 1.812 1.82c1.058.06 1.39-4.49.844-11.63-.198-2.59-.406-3.37-.812-3.37zm67.124.53c-1.34.25-2.8 2.16-2.8 3.25 0 2.17.99 3.48 3.71 4.31.5.15 1.5.15 2.03-.09 1.09-.5 2.16-1.96 2.16-3.7 0-1.01-.2-1.99-1.79-3.02-1.51-.98-2.29-.94-3.31-.75zm.53 1.33c.42 0 1.88.38 2.6 1.1 1.16 1.16.76 1.97.4 2.75-.57 1.27-3.01 1.24-4.28-.03-1.61-1.6-.92-3.82 1.28-3.82zm-68.748.79c.476.16.701 2.21.75 6.28.018 1.51-.108 2.58-.344 2.66-.549.18-4.195-4.06-4.187-4.88.008-.84 3.186-4.26 3.781-4.06zm25.156 14.85c-.41-.07-.66.08-1.156.37-.566.34-3.259 3.06-4.75 4.47-2.531 2.39-3.72 3.34-6.281 4.91-1.423.87-1.61 1.56-.594 2.4 1.061.89 1.9.92 4.625.16 1.168-.33 11.599-2.72 13.781-3.5 2.183-.78 4.559-1.41 5.281-1.41 1.676 0 2.766-.91 2.246-1.87-.2-.38-2.017-.94-2.652-1.22s-1.942-.78-2.906-1.13-4.418-1.75-5.594-2.34c-1.03-.52-1.59-.78-2-.84zm-.094 1.28c.192-.07 1.833.61 3.625 1.5 1.793.88 3.61 1.7 4.063 1.84 1.058.33 1.079 1.53.031 2.09-1.074.58-9.114 2.6-11.125 3.13-4.775 1.26-5.869 1.41-6.219.84-.263-.42.572-1.28 7.938-8.06.736-.68 1.496-1.28 1.687-1.34zm57.156 10.03c-.72.1-1 .39-1 .84 0 .87 1.11 1.78 4.94 4.03 1.81 1.07 3.86 2.4 4.56 2.94.71.54 5.75 3.69 6.25 4.22 1.12 1.19 2.23 1.06 4.44-.53.84-.61 7.01-4.34 8.47-5.1 4.85-2.51 6.5-3.69 6.5-4.65 0-.62-.25-.94-.88-1.1-.93-.23-1.56-.23-17.06-.15-5.34.03-11.06-.14-12.69-.35-1.67-.21-2.81-.26-3.53-.15zm16.99 2.06c11.69-.06 13.17-.08 13.17.58 0 .48-8.74 5.99-11.63 7.61-.84.47-1.77.85-2.03.84s-1.27-.67-2.25-1.47-10.28-6.63-10.28-7.12c0-.44 2.79-.4 13.02-.44z"/><path d="M57.438 62.168c8.767 8.233 16.301 17.902 21.438 28.813 1.34-1.122.723-3.138-.183-4.331-1.905-2.857-3.821-5.71-5.749-8.548-4.304-5.619-8.277-11.736-14.171-15.851-.364-.318-2.139-1.547-1.335-.083zM234.88 49.606c-5.98 6.305-12.31 12.569-16.1 20.505-.95 2-1.7 4.092-2.22 6.245 8.31-8.164 13.13-19.038 20.72-27.782-.88-1.472-1.52.899-2.4 1.032z" fill="#865b00"/><path d="M238.14 4.27c-.54.206-1.12.846-1.78 1.938-2.07 3.416-3.94 12.977-3.6 18.312.51 7.885 1.08 13.654 1.54 15.125.23.76.83.505 1.37-.562.36-.707.6-3.294.78-8.688.36-10.903.61-12.772 2.53-18.781 1.42-4.427 1.58-5.81.78-6.688-.56-.626-1.08-.862-1.62-.656zm-27.09 5.438c-1.16 0-1.61 1.175-1.13 3 .55 2.052 2.15 4.811 5.22 9.062 3.16 4.378 5.43 8.269 8.94 15.125 2.48 4.861 3.23 5.833 3.87 5.188.23-.228-1.52-5.26-2.4-6.938-.32-.604-1.69-3.311-3-6.031-2.52-5.18-7.65-14.143-7.88-15.063-.48-1.914-2.52-4.343-3.62-4.343zM57.17 11.77c-.591-.134-1.235.326-1.969 1.406-.763 1.123-.802 1.554-.75 7 .031 3.195.231 7.715.469 10.032.84 8.179 1.756 15.12 2.469 18.968.084.454.297.813.5.813.772 0 1.162-2.049.937-5.125-.543-7.423-.858-17.896-.562-19.594.175-1.007.491-3.611.687-5.781.291-3.221.254-4.235-.187-5.5-.472-1.354-1.003-2.085-1.594-2.219zm211.09 2.344c-.75.044-1.43.252-2 .625-1.21.801-7.48 6.897-10.12 9.844-1.06 1.187-2.31 2.577-2.78 3.093s-2.25 3.362-2.56 3.625c-.32.264-1.35 1.577-2.25 2.938-.91 1.361-2.33 3.131-3.16 3.937-.84.814-1.39 1.65-1.25 1.875.14.224.36.413.5.407.36-.018 5.39-4.832 5.78-5.532.18-.321 1.5-1.564 2.91-2.781s3.54-3.166 4.75-4.312 4.98-4.132 5.68-4.782c.71-.649 2.4-1.739 3.75-2.406 1.65-.804 2.79-1.634 3.38-2.5 1.44-2.117 1.38-3.099-.22-3.656-.84-.292-1.65-.419-2.41-.375zM19.7 23.77c-.794-.049-1.375.271-1.375.969 0 1.34 1.161 3.603 2.313 4.5.637.496 2.899 2.604 5.031 4.687s4.813 4.444 5.969 5.25a63.78 63.78 0 0 1 4.031 3.125c4.321 3.689 5.258 4.461 6.781 5.688.876.705 1.941 1.256 2.375 1.25.772-.011.77-.018-.125-.813-.504-.447-1.547-1.671-2.312-2.718s-1.688-1.984-2.032-2.094c-.343-.11-1.343-1.075-2.25-2.125-.906-1.051-1.991-2.244-2.406-2.656s-2.255-2.491-4.094-4.625-4.565-4.928-6.031-6.219a117.693 117.693 0 0 1-3.312-3.031c-.761-.745-1.769-1.139-2.563-1.188zm165.16 11.938c-1.21.006-2.78 1.25-2.78 2.218 0 .8 1.92 2.472 3.22 2.782.53.128 1.14.354 1.34.5 1.28.919 9.87 2.978 14.47 3.468 1.31.14 4.54.706 7.15 1.282 2.62.575 5.68 1.166 6.79 1.312 1.1.146 2.52.483 3.12.75 1.6.706 2.96.515 2.81-.406-.16-1.035-1.47-1.942-3.18-2.219-.81-.13-7.81-2.627-10.82-3.094-1.51-.234-5.97-1.574-7.68-2.062-1.72-.489-4.28-1.363-5.69-1.938-3.53-1.439-7.46-2.6-8.75-2.593zm-83.85 3.531c-1.152-.249-3.51.623-6.745 2.687-1.582 1.009-6.474 4.316-8.313 5.782-1.99 1.586-11.153 6.736-12.031 7.687-.744.806-4.688 2.889-4.688 3.063s.304.32.657.312c1.201-.027 10.281-4.101 19.25-7.906 1.583-.672 4.577-2.194 6.625-3.406 3.196-1.892 3.891-2.482 4.905-4.157 1.48-2.442 1.5-3.813.34-4.062zm148.22 6.531c-1.06.147-1.78.504-1.87 1-.17.864.67 1.187 5.06 2.094 5.71 1.178 11.81 3.043 17.03 5.156 1.61.652 4.23 1.477 5.85 1.844 4.1.935 5.88.91 6.56-.063.34-.491.43-1.051.25-1.531-.31-.83-2.38-2.094-3.44-2.094-.37 0-6.75-1.994-10.31-2.687a97.909 97.909 0 0 1-4.97-1.125c-6.37-1.67-7.73-1.981-10.13-2.406-1.53-.273-2.96-.334-4.03-.188zm-4.78 9.031c-.5-.159-.84.058-.84.657 0 .382.53 1.169 1.19 1.75 1.48 1.318 2.74 3.017 6.84 9.281 1.79 2.728 3.81 5.521 4.47 6.219.65.697 1.6 1.851 2.12 2.562 1.13 1.536 3.41 4.326 5.13 6.281 1.25 1.423 1.97 1.7 2.97 1.063.47-.303.4-.636-.47-2.313-.95-1.831-2.34-3.709-4.19-5.656-.44-.463-1.53-1.862-2.44-3.125-.9-1.263-2.2-2.928-2.9-3.687s-2.24-2.574-3.41-4.032c-1.16-1.457-2.8-3.374-3.66-4.281-.85-.907-2.16-2.362-2.9-3.219-.72-.824-1.4-1.341-1.91-1.5zM16.8 56.864c-2.165-.101-4.047.041-4.563.469-1.365 1.133-1.263 2.848.188 3.625.368.197 1.902.69 3.406 1.093 2.384.639 4.043.737 13.125.813 5.73.048 13.435.5 15.094.5 2.437 0 3.031-.119 3.031-.563 0-.439-.73-.564-3.656-.718-2.015-.107-6.095-1.159-7.188-1.282-2.781-.313-9.882-1.923-13.156-2.968-1.657-.53-4.116-.868-6.281-.969zm218.9 6c-.59.101-.63 1.318.1 2.687.32.605.98 2.156 1.46 3.438.49 1.282 1.45 3.586 2.13 5.125s1.66 3.964 2.19 5.375c.52 1.41 1.27 3.367 1.65 4.375.39 1.007 1.14 3.256 1.66 5 .99 3.306 1.97 4.939 3.28 5.469 1.09.438 1.17.433 1.69-.188.97-1.175.14-3.589-4.53-13.094-2.55-5.186-4.63-9.533-4.63-9.656 0-.522-3.75-7.831-4.22-8.219-.3-.251-.58-.346-.78-.312zM57.61 71.676c-.374.162-.852.534-1.25 1.063-2.217 2.95-7.575 8.303-11.156 11.156-5.421 4.319-8.728 8.059-9.656 10.906-.385 1.181-.346 1.515.156 2.282.746 1.139 2.423 1.212 3.906.156 1.196-.851 4.641-5.195 8.094-10.156 5.812-8.352 8.221-11.759 9.344-13.25.667-.886 1.187-1.734 1.187-1.907 0-.356-.25-.412-.625-.25z" fill="#ff913e"/><path d="M261.67.42c-.36-.14-1.16.454-1.88 1.5-.56.82-1.9 2.66-2.97 4.062-1.06 1.403-3.01 4.484-4.34 6.844s-2.75 4.715-3.13 5.25c-.37.535-.68 1.154-.68 1.375 0 .755.98.411 1.75-.625.42-.569 1.44-2.401 2.28-4.062 1.57-3.133 3.39-5.934 7.03-10.75 1.17-1.55 2.12-2.974 2.12-3.188 0-.22-.06-.36-.18-.406zM29.64 8.482c-.125 0-.411.326-.656.72-.377.603-.245 1.177.937 3.749.77 1.673 1.613 3.726 1.875 4.531.577 1.768 4.715 10.772 5.25 11.438.239.296.503.341.719.125.346-.346-.731-3.177-2.5-6.625-.468-.912-1.273-2.901-1.812-4.406-.539-1.506-1.13-2.893-1.282-3.094-.151-.202-.722-1.744-1.281-3.406-.558-1.663-1.125-3.032-1.25-3.032zm48.125 3.313c-.285 0-.597.359-.687.812-.382 1.925-.916 5.361-1.125 7.063-.124 1.007-.585 3.051-1 4.562-.416 1.511-.856 3.5-1 4.407-.145.906-.783 3.471-1.407 5.687-1.505 5.353-2.072 8.073-1.75 8.594.452.73 1.115.188 1.375-1.125 1.147-5.78 1.606-7.917 2.344-10.781 1.098-4.261 2.607-10.941 2.906-12.813.129-.806.481-2.234.782-3.187.585-1.857.402-3.219-.438-3.219zm109.88.156c-.36-.216-.5-.169-.5.094 0 .802 1.87 2.658 4.84 4.812 1.15.836 5.27 4.648 9.16 8.469 3.88 3.821 7.26 6.964 7.5 6.969 1.04.023.81-.873-.5-1.938-1.59-1.289-5.99-5.426-9.63-9.031-2.85-2.818-4.62-4.377-5.87-5.187-.51-.326-1.96-1.541-3.22-2.688-.88-.795-1.43-1.284-1.78-1.5zm97.75 19.688c-.26-.066-.74-.027-1.63.093-1.06.143-3.89.506-6.31.782-4.02.457-9.69 1.374-11.28 1.843-.36.105-.63.444-.63.75 0 .629.61.581 6.6-.593 1.91-.376 5.11-.781 7.12-.907 5.72-.357 6.41-.507 6.41-1.375 0-.345-.03-.528-.28-.593zM1.455 39.795c-.302-.002-.506.131-.75.375-.717.717-.542.838 2 1.5 1.177.307 2.315.696 2.531.875s1.214.536 2.219.781c1.005.246 1.996.578 2.219.75.222.173 2.21.874 4.406 1.563 4.596 1.441 4.906 1.502 4.906.812 0-.612-1.534-1.242-8.063-3.375-2.72-.889-5.253-1.805-5.656-2-.403-.195-1.48-.598-2.375-.906-.723-.249-1.135-.374-1.437-.375zm198.72 16.562c-1.97.059-3.37.21-3.63.469-.21.213-.31.395-.22.406s2.2.103 4.72.188c2.52.084 5.75.294 7.16.469 3.73.462 4.14.478 4.37.093.43-.687-1.38-1.188-5.4-1.468a73.652 73.652 0 0 0-7-.157zm65.12 6.344c-1.18 0-.3 1.083 1.97 2.406 1.36.79 4.52 3.064 7.03 5.032 2.52 1.967 4.76 3.507 4.97 3.437.92-.305.22-1.24-2-2.719-1.31-.874-2.72-1.915-3.12-2.281-1.35-1.223-8.35-5.875-8.85-5.875zm-37.84 14.688c-.29-.021-.23.65.44 2.031 4.12 8.568 4.49 9.414 5.46 12 .53 1.383 1.03 2.622 1.13 2.781.33.527 1.25.327 1.25-.281 0-.329-.56-1.698-1.25-3.031-.69-1.334-1.68-3.33-2.19-4.438-.5-1.108-1.98-4.249-3.28-6.969-.65-1.36-1.28-2.073-1.56-2.093zm-190.44 1.312c-1.063.082-2.387.376-2.594.625-.269.324-2.986 1.393-5 2.375-2.013.983-4.058 1.924-4.562 2.063-.504.138-1.253.379-1.656.562-1.364.62-6.599 1.932-8.625 2.156-1.73.192-2.025.355-2.125 1.063-.142.996.712 1.07 2.781.281.76-.29 3.679-1.25 6.5-2.156 5.441-1.748 14.839-5.409 16.219-6.313.927-.607.125-.738-.938-.656zm26.656 8.438c-.198.162-.343.693-.343 1.531 0 .752-.564 3.08-1.25 5.187-1.364 4.185-2.356 7.963-2.813 10.813-.966 6.02.676 1.27.969-.31.293-1.59 1.121-4.812 1.844-7.159 2.23-7.245 2.486-8.246 2.218-9.312-.174-.696-.427-.912-.625-.75z" fill="#f3e10d"/></svg>