<svg id="Capa_1" enable-background="new 0 0 512 512" height="512" viewBox="0 0 512 512" width="512" xmlns="http://www.w3.org/2000/svg"><path d="m10 70h262v352h-262z" fill="#8bf2cf"/><path d="m362 196c66.27 0 120 53.73 120 120-7.492 0-227.486 0-240 0 0-66.251 53.718-120 120-120z" fill="#ffc473"/><circle cx="362" cy="166" fill="#ffc473" r="30"/><path d="m272 422v50c0 16.57-13.43 30-30 30h-202c-16.57 0-30-13.43-30-30v-50z" fill="#fff5f5"/><path d="m272 40v30h-262v-30c0-16.57 13.43-30 30-30h202c16.57 0 30 13.43 30 30z" fill="#fff5f5"/><path d="m502 306h-10.381c-4.295-56.201-44.487-102.516-97.631-116.013 5.028-6.688 8.012-14.995 8.012-23.987 0-22.056-17.944-40-40-40s-40 17.944-40 40c0 8.976 2.973 17.27 7.984 23.952-17.415 4.39-33.709 12.367-47.984 23.558v-173.51c0-22.056-17.944-40-40-40h-202c-22.056 0-40 17.944-40 40v432c0 22.056 17.944 40 40 40h61c5.522 0 10-4.477 10-10s-4.478-10-10-10h-61c-11.028 0-20-8.972-20-20v-40h242v40c0 11.028-8.972 20-20 20h-51c-5.522 0-10 4.477-10 10s4.478 10 10 10h51c22.056 0 40-17.944 40-40v-146h220c5.522 0 10-4.477 10-10s-4.478-10-10-10zm-160-140c0-11.028 8.972-20 20-20s20 8.972 20 20-8.972 20-20 20-20-8.972-20-20zm20 40c57.283 0 104.471 44.015 109.541 100h-219.087c5.068-55.709 51.717-100 109.546-100zm-322-186h202c11.028 0 20 8.972 20 20v20h-242v-20c0-11.028 8.972-20 20-20zm222 392h-242v-332h242v152.954c-17.238 20.726-27.547 46.239-29.608 73.046h-10.392c-5.522 0-10 4.477-10 10s4.478 10 10 10h40z"/><path d="m182 246h-112c-5.522 0-10 4.477-10 10s4.478 10 10 10h112c5.522 0 10-4.477 10-10s-4.478-10-10-10z"/><path d="m136 206h76c5.522 0 10-4.477 10-10s-4.478-10-10-10h-76c-5.522 0-10 4.477-10 10s4.478 10 10 10z"/><path d="m152 306h-52c-5.522 0-10 4.477-10 10s4.478 10 10 10h52c5.522 0 10-4.477 10-10s-4.478-10-10-10z"/><path d="m176 462c0-5.523-4.478-10-10-10h-40c-5.522 0-10 4.477-10 10s4.478 10 10 10h40c5.522 0 10-4.477 10-10z"/><circle cx="146" cy="502" r="10"/></svg>