<svg height="512" viewBox="0 0 512 512" width="512" xmlns="http://www.w3.org/2000/svg"><path d="m440 224h-24v-24a24 24 0 0 0 -48 0v40h-8a24 24 0 0 0 0 48h9.371a24.12 24.12 0 0 0 14.629 14.629v73.371a8.011 8.011 0 0 1 -8 8h-40v-8a8 8 0 0 0 -8-8h-144v-.793a95.279 95.279 0 0 0 55.645-79.207h8.355a24 24 0 0 0 0-48h-8v-104a8 8 0 0 0 -13.656-5.656 73.46 73.46 0 0 1 -52.285 21.656h-54.059a72.084 72.084 0 0 0 -72 72v16h-8a24 24 0 0 0 0 48h8.355a95.277 95.277 0 0 0 55.645 79.207v.793h-80a8 8 0 0 0 -8 8v112a8 8 0 0 0 8 8h256a8 8 0 0 0 8-8v-24h40a8 8 0 0 0 8-8v-8h56a56.063 56.063 0 0 0 56-56v-89.371a24.041 24.041 0 0 0 16-22.629v-32a24.027 24.027 0 0 0 -24-24zm-192 32a8 8 0 0 1 0 16h-8v-16zm-128-88h54.059a89.3 89.3 0 0 0 49.941-15.1v66.173a190.782 190.782 0 0 0 -159.745-.11 56.056 56.056 0 0 1 55.745-50.963zm-88 96a8.011 8.011 0 0 1 8-8h8v16h-8a8.011 8.011 0 0 1 -8-8zm32 16v-43.18a174.977 174.977 0 0 1 160 0v43.18a79.519 79.519 0 0 1 -50.914 74.461 8 8 0 0 0 -5.086 7.449v30.09a24 24 0 0 1 -48 0v-30.09a8 8 0 0 0 -5.086-7.449 79.519 79.519 0 0 1 -50.914-74.461zm256 168h-40a8 8 0 0 0 -8 8v24h-240v-96h72v8a40 40 0 0 0 80 0v-8h136zm128-168a8.011 8.011 0 0 1 -8 8 8 8 0 0 0 -8 8v96a40.047 40.047 0 0 1 -40 40h-56v-32h40a24.027 24.027 0 0 0 24-24v-80a8 8 0 0 0 -8-8 8.011 8.011 0 0 1 -8-8 8 8 0 0 0 -8-8h-16a8 8 0 0 1 0-16h16a8 8 0 0 0 8-8v-48a8 8 0 0 1 16 0v32a8 8 0 0 0 8 8h32a8.011 8.011 0 0 1 8 8z"/><path d="m360.668 100.312c4.66 4.016 7.332 10.4 7.332 17.512v18.176a24 24 0 0 0 48 0v-18.453c0-6.629 3.156-13.246 8.891-18.633a48.012 48.012 0 1 0 -64.223 1.4zm39.332 35.688a8 8 0 0 1 -16 0v-8h16zm-39.508-77.73a32.013 32.013 0 0 1 63.508 5.73 31.613 31.613 0 0 1 -10.07 23.258c-7.473 7.023-12.157 15.652-13.516 24.742h-16.805a37.889 37.889 0 0 0 -12.5-23.809 31.986 31.986 0 0 1 -10.617-29.921z"/><path d="m456 64h40v16h-40z"/><path d="m288 64h40v16h-40z"/><path d="m448.13 28.5h40.002v16.001h-40.002z" transform="matrix(.906 -.423 .423 .906 28.474 201.364)"/><path d="m295.868 99.5h40.002v16.001h-40.002z" transform="matrix(.906 -.423 .423 .906 -15.828 143.642)"/><path d="m460.13 87.499h16.001v40.002h-16.001z" transform="matrix(.423 -.906 .906 .423 172.855 486.334)"/><path d="m307.869 16.499h16.001v40.002h-16.001z" transform="matrix(.423 -.906 .906 .423 149.292 307.346)"/><path d="m176 272a8 8 0 0 1 16 0v8h16v-8a24 24 0 0 0 -48 0v8h16z"/><path d="m112 280h16v-8a24 24 0 0 0 -48 0v8h16v-8a8 8 0 0 1 16 0z"/><path d="m144 344a32.036 32.036 0 0 0 32-32v-8a8 8 0 0 0 -8-8h-48a8 8 0 0 0 -8 8v8a32.036 32.036 0 0 0 32 32zm16-32a16 16 0 0 1 -32 0z"/></svg>